<?xml version="1.0" encoding="utf-8"?>
<!-- Generator: Adobe Illustrator 14.0.0, SVG Export Plug-In . SVG Version: 6.00 Build 43363)  -->
<!DOCTYPE svg PUBLIC "-//W3C//DTD SVG 1.1//EN" "http://www.w3.org/Graphics/SVG/1.1/DTD/svg11.dtd">
<svg version="1.1" id="Layer_1" xmlns="http://www.w3.org/2000/svg" xmlns:xlink="http://www.w3.org/1999/xlink" x="0px" y="0px"
	 width="543.155px" height="158.788px" viewBox="36.146 89.406 543.155 158.788"
	 enable-background="new 36.146 89.406 543.155 158.788" xml:space="preserve">
<g>
	<path fill="#A40344" d="M36.87,120.387c0-8.696-0.182-17.393-0.182-25.909c0.726,0.181,1.45,0.181,2.174,0.181
		c0.725,0,1.45-0.181,2.174-0.181c8.696,9.784,17.03,18.299,28.263,29.169l10.871,10.689c1.811,1.632,2.537,2.355,4.529,3.987
		V117.85c0-7.792-0.544-15.763-1.087-23.373c1.087,0.363,2.355,0.544,3.985,0.544c1.631,0,2.718-0.363,3.805-0.544
		c-0.906,11.233-1.087,17.757-1.087,31.162c0,5.436,0.182,18.662,0.182,23.552c0,1.995,0.181,6.885,0.181,9.059
		c-0.725-0.181-1.268-0.181-1.812-0.181c-0.725,0-1.269,0.181-1.993,0.181c-11.776-12.682-34.422-35.328-44.206-44.387
		c0,12.501,0.18,19.386,0.362,29.168c0.181,5.436,0.181,6.341,0.906,14.855c-1.088-0.18-2.899-0.542-4.167-0.542
		c-1.449,0-2.536,0.362-3.623,0.542l0.725-12.863c0.181-2.535,0.362-9.42,0.362-11.957L36.87,120.387L36.87,120.387z"/>
	<path fill="#A40344" d="M105.354,123.285c0-3.805-0.182-5.616-0.544-9.783c2.174,0.362,3.986,0.544,5.979,0.544
		s3.985-0.182,5.979-0.544c-0.906,4.167-1.087,15.944-1.087,20.11c0,2.535,0.182,10.327,0.726,12.319
		c1.087,3.804,4.348,5.979,8.152,5.979c5.798,0,7.972-3.986,8.696-5.253c1.268-2.355,1.631-7.791,1.631-11.414
		c0-6.341,0-16.307-0.725-21.922c1.631,0.362,3.624,0.543,5.435,0.543c1.45,0,3.081-0.181,6.342-0.543
		c-0.544,8.152-0.907,16.486-0.907,24.821c0,11.594,0.363,14.493,0.725,19.566c-2.537-0.181-4.167-0.544-5.797-0.544
		c-1.812,0-3.261,0.363-5.254,0.544c0.362-3.443,0.362-3.443,0.362-7.429c-2.537,3.26-6.704,8.515-15.038,8.515
		c-5.435,0-10.326-2.537-12.863-7.248c-1.812-3.26-1.812-7.79-1.812-8.877C104.991,136.329,105.354,129.627,105.354,123.285z"/>
	<path fill="#A40344" d="M194.309,149.192c-1.268,1.813-1.449,4.168-1.811,6.522c-5.074,2.718-10.146,3.262-13.588,3.262
		c-15.219,0-23.009-11.414-23.009-22.466c0-12.138,7.609-23.733,24.277-23.733c5.617,0,9.421,1.269,14.131,3.262
		c-0.724,1.268-1.63,3.985-2.174,8.696h-1.812c-0.181-0.544-1.812-7.61-9.783-7.61c-4.348,0-7.972,2.537-9.965,5.436
		c-2.355,3.441-2.898,7.608-2.898,12.5c0,9.059,3.08,19.022,13.769,19.022c5.435,0,7.791-2.355,11.233-5.434L194.309,149.192z"/>
	<path fill="#A40344" d="M208.259,89.95c3.08,0,3.986-0.363,5.979-0.544c-0.906,9.964-0.906,24.458-0.906,34.06
		c0,1.813-0.363,24.096,0.906,34.422c-1.813-0.18-3.624-0.542-5.617-0.542c-1.631,0-3.08,0.181-6.341,0.542
		c1.087-7.064,0.906-34.604,0.906-36.778c0-17.211-0.544-24.458-1.087-31.705C204.274,89.768,205.361,89.95,208.259,89.95z"/>
	<path fill="#A40344" d="M235.254,136.148c0,3.443,0,17.393,14.676,17.393c4.167,0,10.145-2.354,13.044-5.797l1.087,0.725
		c-0.363,0.724-0.544,1.268-0.725,1.993l-0.906,3.985c-0.725,0.725-6.704,4.711-15.581,4.711c-3.442,0-11.596-0.907-16.668-6.16
		c-6.16-6.16-6.16-14.495-6.16-17.574c0-15.4,10.508-22.285,21.378-22.285c3.442,0,12.682,0,17.393,8.334
		c1.63,2.899,2.898,7.791,2.717,14.856C265.691,136.148,235.254,136.148,235.254,136.148z M255.002,131.62
		c0-4.529,0-15.037-9.239-15.037c-9.602,0-10.146,11.413-10.327,15.037H255.002z"/>
	<path fill="#A40344" d="M275.113,98.646c0-3.443,2.898-6.522,6.341-6.522s6.522,3.079,6.522,6.522c0,3.441-3.08,6.341-6.522,6.341
		S275.113,102.088,275.113,98.646z M276.2,147.925c0.181-4.71,0.362-7.971,0.362-11.414c0-6.522-0.362-16.486-0.906-23.008
		c1.812,0.362,3.442,0.544,6.16,0.544c2.718,0,4.167-0.363,5.798-0.544l-0.181,4.167c-0.182,3.805-0.543,12.501-0.543,15.763
		c0,3.985,0.182,13.587,0.362,16.849c0,1.268,0.363,6.522,0.363,7.608c-1.812-0.361-3.261-0.542-5.435-0.542
		c-2.174,0-4.167,0.362-6.341,0.542L276.2,147.925z"/>
	<path fill="#A40344" d="M336.349,149.192c-1.269,1.813-1.449,4.168-1.812,6.522c-5.072,2.718-10.146,3.262-13.588,3.262
		c-15.219,0-23.009-11.414-23.009-22.466c0-12.138,7.609-23.733,24.276-23.733c5.617,0,9.422,1.269,14.132,3.262
		c-0.725,1.268-1.63,3.985-2.174,8.696h-1.812c-0.182-0.544-1.812-7.61-9.783-7.61c-4.349,0-7.972,2.537-9.965,5.436
		c-2.355,3.441-2.898,7.608-2.898,12.5c0,9.059,3.08,19.022,13.769,19.022c5.436,0,7.791-2.355,11.233-5.434L336.349,149.192z"/>
	<path fill="#A40344" d="M404.832,147.562l-3.804-9.783c-3.986-0.181-7.791-0.363-11.776-0.363c-3.624,0-7.429,0.182-11.052,0.363
		c-2.899,7.064-5.979,14.856-7.428,20.109c-1.269-0.18-2.899-0.542-4.349-0.542c-1.631,0-2.899,0.362-4.167,0.542l10.689-23.913
		c9.421-20.836,14.675-32.976,16.849-40.402c1.087,0.362,1.993,0.544,3.08,0.544s1.992-0.182,2.899-0.544
		c4.348,12.682,9.964,25.545,13.225,33.336c3.442,7.971,9.603,21.922,13.77,30.979c-1.449-0.18-4.711-0.542-7.247-0.542
		s-5.254,0.542-6.884,0.542L404.832,147.562z M389.613,109.335l-9.42,22.646c3.261,0.181,6.341,0.362,9.602,0.362
		c2.898,0,5.616-0.181,8.515-0.362L389.613,109.335z"/>
	<path fill="#A40344" d="M464.258,149.192c-1.268,1.813-1.451,4.168-1.813,6.522c-5.071,2.718-10.144,3.262-13.587,3.262
		c-15.219,0-23.009-11.414-23.009-22.466c0-12.138,7.609-23.733,24.276-23.733c5.616,0,9.422,1.269,14.133,3.262
		c-0.726,1.268-1.631,3.985-2.175,8.696h-1.812c-0.183-0.544-1.813-7.61-9.783-7.61c-4.349,0-7.972,2.537-9.965,5.436
		c-2.354,3.441-2.898,7.608-2.898,12.5c0,9.059,3.079,19.022,13.768,19.022c5.437,0,7.792-2.355,11.234-5.434L464.258,149.192z"/>
	<path fill="#A40344" d="M471.503,98.646c0-3.443,2.899-6.522,6.342-6.522s6.523,3.079,6.523,6.522c0,3.441-3.081,6.341-6.523,6.341
		S471.503,102.088,471.503,98.646z M472.591,147.925c0.182-4.71,0.363-7.971,0.363-11.414c0-6.522-0.363-16.486-0.907-23.008
		c1.812,0.362,3.442,0.544,6.16,0.544s4.168-0.363,5.799-0.544l-0.184,4.167c-0.18,3.805-0.542,12.501-0.542,15.763
		c0,3.985,0.182,13.587,0.362,16.849c0,1.268,0.363,6.522,0.363,7.608c-1.813-0.361-3.263-0.542-5.437-0.542
		s-4.167,0.362-6.341,0.542L472.591,147.925z"/>
	<path fill="#A40344" d="M528.392,151.548c-2.172,3.262-6.883,7.61-14.132,7.61c-12.137,0-20.29-10.146-20.29-22.466
		c0-15.4,9.421-23.552,20.652-23.552c6.887,0,10.147,2.899,13.228,6.16c0-11.957-0.183-22.104-1.088-29.712
		c1.993,0.363,3.805,0.542,6.522,0.542c1.992,0,3.624-0.18,5.255-0.542c-0.726,11.052-1.088,22.104-1.088,33.155
		c0,1.449,0.181,29.893,1.088,35.328c-0.907-0.182-2.899-0.542-5.255-0.542s-3.805,0.361-5.435,0.542L528.392,151.548z
		 M528.029,135.605c0-8.696-2.173-17.574-11.052-17.574c-9.059,0-11.231,9.783-11.231,16.849c0,7.066,1.449,18.842,10.869,18.842
		C523.502,153.722,528.029,147.743,528.029,135.605z"/>
	<path fill="#A40344" d="M551.583,147.381c0.905,1.993,2.718,7.066,11.414,7.066c4.528,0,6.884-3.26,6.884-6.522
		c0-3.804-3.623-5.073-7.972-6.703c-1.268-0.544-5.615-1.993-6.341-2.355c-1.813-0.905-7.247-3.261-7.247-11.775
		c0-8.154,5.797-14.313,16.123-14.313c5.618,0,9.784,1.63,12.321,2.718c-1.812,3.623-2.174,6.16-2.355,8.152h-1.449
		c-1.45-2.897-3.262-6.522-8.877-6.522c-4.349,0-7.429,2.355-7.429,6.16c0,3.987,3.08,5.073,10.145,7.429
		c5.799,1.993,12.501,3.985,12.501,13.044c0,5.797-4.528,15.218-17.572,15.218c-5.255,0-8.878-1.63-13.589-3.623
		c0.363-0.725,1.088-2.537,1.451-3.806c0.542-1.63,0.542-3.26,0.724-4.167H551.583L551.583,147.381z"/>
</g>
<g>
	<path fill="#A40344" d="M65.857,219.206c1.451,1.993,3.443,5.073,4.894,6.885c7.246,10.327,9.781,13.407,15.58,20.834
		c-2.535-0.361-4.891-0.542-8.151-0.542c-3.626,0-4.71,0.181-7.429,0.542c-1.45-2.174-3.443-5.616-4.894-7.609
		c-4.711-7.248-10.506-15.4-15.4-22.466h-2.172v13.044c0,2.718,0.362,14.676,0.362,17.03c-1.813-0.18-3.806-0.542-6.161-0.542
		c-2.172,0-4.348,0.362-6.341,0.542c0.725-18.298,0.905-20.291,0.905-38.046c0-12.14,0-13.407-0.722-25.365
		c2.172,0.181,4.528,0.544,9.238,0.544c2.355,0,13.044-0.544,15.22-0.544c5.979,0,10.506,0.725,14.492,4.529
		c2.718,2.718,4.168,6.522,4.168,10.328c0,10.327-7.611,15.581-16.125,17.03L65.857,219.206z M48.102,212.503
		c1.813,0.181,3.989,0.362,6.341,0.362c9.242,0,12.685-6.703,12.685-12.682c0-3.804-0.725-7.248-3.806-9.603
		c-2.535-1.812-5.616-2.355-8.517-2.355c-1.81,0-5.253,0.362-6.521,0.544L48.102,212.503L48.102,212.503z"/>
	<path fill="#A40344" d="M98.833,225.184c0,3.443,0,17.393,14.675,17.393c4.166,0,10.147-2.354,13.044-5.797l1.088,0.725
		c-0.363,0.724-0.545,1.268-0.725,1.993l-0.905,3.986c-0.725,0.725-6.703,4.71-15.583,4.71c-3.443,0-11.594-0.906-16.667-6.159
		c-6.161-6.16-6.161-14.495-6.161-17.574c0-15.4,10.509-22.285,21.378-22.285c3.443,0,12.685,0,17.393,8.334
		c1.633,2.899,2.901,7.791,2.718,14.856L98.833,225.184L98.833,225.184z M118.581,220.656c0-4.529,0-15.037-9.242-15.037
		c-9.601,0-10.144,11.413-10.326,15.037H118.581z"/>
	<path fill="#A40344" d="M139.959,236.418c0.905,1.993,2.718,7.066,11.414,7.066c4.711,0,6.883-3.26,6.883-6.522
		c0-3.804-3.623-5.073-7.971-6.703c-1.268-0.544-5.616-1.993-6.341-2.355c-1.813-0.905-7.246-3.26-7.246-11.775
		c0-8.154,5.795-14.313,16.122-14.313c5.619,0,9.784,1.63,12.319,2.718c-1.81,3.623-2.172,6.16-2.352,8.152h-1.451
		c-1.45-2.897-3.26-6.522-8.879-6.522c-4.348,0-7.426,2.355-7.426,6.16c0,3.987,3.078,5.073,10.144,7.429
		c5.799,1.993,12.502,3.985,12.502,13.044c0,5.797-4.531,15.218-17.576,15.218c-5.253,0-8.876-1.63-13.587-3.623
		c0.363-0.726,1.088-2.537,1.451-3.806c0.542-1.63,0.542-3.26,0.725-4.167H139.959z"/>
	<path fill="#A40344" d="M185.976,225.184c0,3.443,0,17.393,14.675,17.393c4.168,0,10.146-2.354,13.044-5.797l1.088,0.725
		c-0.363,0.724-0.542,1.268-0.726,1.993l-0.905,3.986c-0.725,0.725-6.704,4.71-15.58,4.71c-3.443,0-11.597-0.906-16.67-6.159
		c-6.158-6.16-6.158-14.495-6.158-17.574c0-15.4,10.506-22.285,21.378-22.285c3.443,0,12.682,0,17.393,8.334
		c1.63,2.899,2.897,7.791,2.718,14.856L185.976,225.184L185.976,225.184z M205.724,220.656c0-4.529,0-15.037-9.239-15.037
		c-9.601,0-10.146,11.413-10.326,15.037H205.724z"/>
	<path fill="#A40344" d="M241.776,221.743c5.436-1.449,6.161-1.812,6.704-2.537c0.363-0.542,0.363-1.268,0.363-1.812
		c0-7.066-3.986-9.783-8.876-9.783c-7.066,0-9.421,4.348-9.964,6.522c-0.545-0.182-0.908-0.182-1.45-0.182s-1.088,0.182-1.45,0.182
		c0.362-1.813,0.545-2.899,0.545-4.53c0-0.906,0-1.631-0.183-2.537c7.066-4.167,9.964-5.254,14.675-5.254
		c9.967,0,16.85,4.529,16.85,13.951c0,3.442-0.363,12.682-0.363,15.763c0,9.057,0.18,11.231,3.261,11.231
		c0.908,0,1.813-0.361,2.538-0.724c-0.183,0.542-0.363,1.086-0.363,1.63s0.18,1.086,0.363,1.63
		c-2.355,0.906-5.256,1.993-7.792,1.993c-5.436,0-6.523-2.716-7.608-5.616c-2.901,3.804-7.611,6.341-12.319,6.341
		c-10.689,0-12.685-7.608-12.685-11.233c0-10.326,6.344-11.957,14.858-14.312L241.776,221.743z M248.48,224.098
		c-10.506,2.718-14.312,3.804-14.312,10.508c0,4.892,2.355,7.971,6.161,7.971c5.073,0,8.151-3.985,8.151-8.696V224.098z"/>
	<path fill="#A40344" d="M273.484,237.868c0.18-3.987,0.18-11.233,0.18-14.856c0-10.147-0.18-12.321-0.725-20.473
		c2.175,0.362,3.623,0.544,6.161,0.544c2.172,0,3.803-0.182,5.253-0.544c-0.542,4.711-0.542,5.253-0.542,9.783
		c2.535-3.986,6.158-10.146,13.587-10.146c0.904,0,1.63,0.181,2.355,0.363c-0.725,1.449-0.904,5.435-0.904,6.704
		c0,1.449,0.18,2.897,0.541,3.985l-0.725,0.544c-1.63-1.269-5.073-1.269-5.433-1.269c-4.168,0-7.066,2.537-8.154,5.073
		c-0.725,1.449-1.088,2.718-1.088,9.24c0,5.979,0.363,14.856,0.905,20.653c-1.085-0.181-3.44-0.543-5.433-0.543
		c-1.63,0-3.623,0.362-6.341,0.543L273.484,237.868z"/>
	<path fill="#A40344" d="M343.597,238.229c-1.268,1.813-1.449,4.168-1.813,6.522c-5.07,2.718-10.145,3.262-13.588,3.262
		c-15.219,0-23.008-11.414-23.008-22.466c0-12.138,7.609-23.733,24.275-23.733c5.617,0,9.422,1.269,14.133,3.262
		c-0.725,1.268-1.629,3.985-2.176,8.696h-1.809c-0.184-0.544-1.814-7.61-9.785-7.61c-4.348,0-7.971,2.537-9.963,5.436
		c-2.355,3.442-2.898,7.609-2.898,12.501c0,9.059,3.078,19.022,13.766,19.022c5.438,0,7.793-2.355,11.236-5.434L343.597,238.229z"/>
	<path fill="#A40344" d="M362.983,181.341c-0.727,10.328-0.727,16.85-0.727,28.264c3.986-5.617,9.059-7.61,14.496-7.61
		c4.891,0,9.963,1.63,12.861,6.16c2.176,3.262,2.176,7.066,2.176,11.233c0,2.174-0.184,7.066-0.184,9.965
		c0,5.072,0.363,13.768,0.545,17.393c-1.813-0.362-3.623-0.544-5.799-0.544c-1.992,0-4.891,0.544-6.158,0.544
		c0.543-5.254,1.086-12.865,1.086-19.385c0-8.517-0.18-11.052-0.725-13.044c-1.086-3.806-4.166-5.798-7.973-5.798
		c-3.439,0-7.607,1.45-9.238,5.978c-0.725,2.355-1.088,4.348-1.088,10.871c0,12.139,0,13.044,0.545,21.379
		c-1.813-0.362-3.805-0.544-5.797-0.544c-1.994,0-4.711,0.544-5.617,0.544c0.723-12.502,0.723-16.669,0.723-36.235l-0.18-17.937
		c0-3.623-0.363-9.42-0.725-14.312c1.813,0.362,3.805,0.544,6.34,0.544c2.355,0,3.807-0.182,5.617-0.544L362.983,181.341z"/>
</g>
</svg>
