<?xml version="1.0" encoding="UTF-8" standalone="no"?>
<!-- Generator: Adobe Illustrator 14.0.0, SVG Export Plug-In . SVG Version: 6.00 Build 43363)  -->
<svg xmlns:rdf="http://www.w3.org/1999/02/22-rdf-syntax-ns#" xmlns="http://www.w3.org/2000/svg" enable-background="new -46.438 -7.894 1246.438 1138.296" xml:space="preserve" height="1138.3px" width="1246.4px" version="1.1" y="0px" x="0px" xmlns:cc="http://creativecommons.org/ns#" xmlns:xlink="http://www.w3.org/1999/xlink" viewBox="-46.438 -7.894 1246.438 1138.296" xmlns:dc="http://purl.org/dc/elements/1.1/"><defs><rect id="SVGID_1_" y="10" x="67" height="552" width="1123"/><rect id="SVGID_3_" y="612.5" x="67" height="415" width="1123"/><rect id="SVGID_5_" y="612.5" x="67" height="415" width="1123"/><rect id="SVGID_7_" y="612.5" x="67" height="415" width="1123"/><rect id="SVGID_9_" y="612.5" x="67" height="415" width="1123"/><rect id="SVGID_11_" y="612.5" x="67" height="415" width="1123"/><rect id="SVGID_13_" y="612.5" x="67" height="415" width="1123"/><rect id="SVGID_15_" y="612.5" x="67" height="415" width="1123"/><rect id="SVGID_17_" y="612.5" x="67" height="415" width="1123"/><rect id="SVGID_19_" y="612.5" x="67" height="415" width="1123"/><rect id="SVGID_21_" y="612.5" x="67" height="415" width="1123"/><rect id="SVGID_23_" y="612.5" x="67" height="415" width="1123"/><rect id="SVGID_25_" y="612.5" x="67" height="415" width="1123"/><rect id="SVGID_27_" y="612.5" x="67" height="415" width="1123"/><rect id="SVGID_29_" y="612.5" x="67" height="415" width="1123"/><rect id="SVGID_31_" y="612.5" x="67" height="415" width="1123"/><rect id="SVGID_33_" y="612.5" x="67" height="415" width="1123"/><rect id="SVGID_35_" y="612.5" x="67" height="415" width="1123"/><rect id="SVGID_37_" y="612.5" x="67" height="415" width="1123"/><rect id="SVGID_39_" y="612.5" x="67" height="415" width="1123"/><rect id="SVGID_41_" y="612.5" x="67" height="415" width="1123"/><rect id="SVGID_43_" y="612.5" x="67" height="415" width="1123"/><rect id="SVGID_45_" y="612.5" x="67" height="415" width="1123"/><rect id="SVGID_47_" y="612.5" x="67" height="415" width="1123"/><rect id="SVGID_49_" y="612.5" x="67" height="415" width="1123"/><rect id="SVGID_51_" y="612.5" x="67" height="415" width="1123"/><rect id="SVGID_53_" y="612.5" x="67" height="415" width="1123"/><rect id="SVGID_55_" y="612.5" x="67" height="415" width="1123"/><rect id="SVGID_57_" y="612.5" x="67" height="415" width="1123"/><rect id="SVGID_59_" y="612.5" x="67" height="415" width="1123"/><rect id="SVGID_61_" y="612.5" x="67" height="415" width="1123"/></defs><metadata><rdf:RDF><cc:Work rdf:about=""><dc:format>image/svg+xml</dc:format><dc:type rdf:resource="http://purl.org/dc/dcmitype/StillImage"/><dc:title/></cc:Work></rdf:RDF></metadata><g><desc>Created with Highcharts 6.1.4</desc><rect y="0" width="1200" height="600" fill="#fff"/><rect height="552" width="1123" y="10" x="67" fill="none"/><g fill="none"><path d="m347.5 10v552"/><path d="m628.5 10v552"/><path d="m908.5 10v552"/><path d="m1189.5 10v552"/><path d="m66.5 10v552"/></g><g stroke="#E6E6E6" fill="none"><path d="m67 562.5h1123"/><path d="m67 493.5h1123"/><path d="m67 424.5h1123"/><path d="m67 355.5h1123"/><path d="m67 286.5h1123"/><path d="m67 217.5h1123"/><path d="m67 148.5h1123"/><path d="m67 79.5h1123"/><path d="m67 9.5h1123"/></g><rect height="552" width="1123" y="10" x="67" fill="none"/><path stroke="#CDD6EA" d="m67 562.5h1123" fill="none"/><text font-size="13" font-family="&apos;LucidaGrande&apos;" transform="matrix(-1.837e-16 -1 1 -1.837e-16 25.547 315.4)" fill="#313131">Coverage</text>
<path d="m67 10v552" fill="none"/><clipPath id="SVGID_2_"><use overflow="visible" xlink:href="#SVGID_1_"/></clipPath><g stroke="#fff" fill="#2980BA" transform="translate(67 10) scale(1)" clip-path="url(#SVGID_2_)"><rect height="507" width="135" y="45.5" x="72.5"/><rect height="63" width="135" y="489.5" x="353.5"/><rect height="19" width="135" y="533.5" x="633.5"/><rect height="56" width="135" y="496.5" x="914.5"/></g><g font-size="11" font-family="&apos;LucidaGrande&apos;" transform="translate(67 10) scale(1)"><g transform="translate(119,23)"><text transform="translate(5 16)" fill="#FFFFFF">73.5%</text>
<text stroke-linejoin="round" transform="translate(5 16)" stroke="#FFFFFF" stroke-width="2" fill="none">73.5%</text>
<text transform="translate(5 16)">73.5%</text>
</g><g transform="translate(404,467)"><text transform="translate(5 16)" fill="#FFFFFF">9.1%</text>
<text stroke-linejoin="round" transform="translate(5 16)" stroke="#FFFFFF" stroke-width="2" fill="none">9.1%</text>
<text transform="translate(5 16)">9.1%</text>
</g><g transform="translate(684,511)"><text transform="translate(5 16)" fill="#FFFFFF">2.7%</text>
<text stroke-linejoin="round" transform="translate(5 16)" stroke="#FFFFFF" stroke-width="2" fill="none">2.7%</text>
<text transform="translate(5 16)">2.7%</text>
</g><g transform="translate(965,474)"><text transform="translate(5 16)" fill="#FFFFFF">8.1%</text>
<text stroke-linejoin="round" transform="translate(5 16)" stroke="#FFFFFF" stroke-width="2" fill="none">8.1%</text>
<text transform="translate(5 16)">8.1%</text>
</g></g><g font-size="13" font-family="&apos;LucidaGrande&apos;" fill="#313131"><text transform="translate(174.97 583)">Integrated</text>
<text transform="translate(447.18 583)">Unintegrated</text>
<text transform="translate(708.47 583)">Disordered regions</text>
<text transform="translate(1031.8 583)">Other</text>
</g><g font-size="13" font-family="&apos;LucidaGrande&apos;" fill="#313131"><text transform="translate(43.78 567)">0</text>
<text transform="translate(35.56 498)">10</text>
<text transform="translate(35.56 429)">20</text>
<text transform="translate(35.56 360)">30</text>
<text transform="translate(35.56 291)">40</text>
<text transform="translate(35.56 222)">50</text>
<text transform="translate(35.56 153)">60</text>
<text transform="translate(35.56 84)">70</text>
<text transform="translate(35.56 15)">80</text>
</g></g><rect y="602.5" width="1200" height="600" fill="#fff"/><rect height="415" width="1123" y="612.5" x="67" fill="none"/><g fill="none"><path d="m141.5 612.5v415"/><path d="m216.5 612.5v415"/><path d="m291.5 612.5v415"/><path d="m365.5 612.5v415"/><path d="m440.5 612.5v415"/><path d="m515.5 612.5v415"/><path d="m590.5 612.5v415"/><path d="m665.5 612.5v415"/><path d="m740.5 612.5v415"/><path d="m815.5 612.5v415"/><path d="m890.5 612.5v415"/><path d="m964.5 612.5v415"/><path d="m1039.5 612.5v415"/><path d="m1114.5 612.5v415"/><path d="m1189.5 612.5v415"/><path d="m66.5 612.5v415"/></g><g stroke="#E6E6E6" fill="none"><path d="m67 1028h1123"/><path d="m67 976h1123"/><path d="m67 924h1123"/><path d="m67 872h1123"/><path d="m67 821h1123"/><path d="m67 769h1123"/><path d="m67 717h1123"/><path d="m67 665h1123"/><path d="m67 612h1123"/></g><rect height="415" width="1123" y="612.5" x="67" fill="none"/><path stroke="#CDD6EA" d="m67 1028h1123" fill="none"/><text font-size="13" font-family="&apos;LucidaGrande&apos;" transform="matrix(-1.837e-16 -1 1 -1.837e-16 25.547 849.4)" fill="#313131">Coverage</text>
<path d="m67 612.5v415" fill="none"/><clipPath id="SVGID_4_"><use overflow="visible" xlink:href="#SVGID_3_"/></clipPath><g transform="translate(67 10) scale(1)" clip-path="url(#SVGID_4_)"><rect height="244" width="36" stroke="#fff" y="655" x="18.5" fill="#2980BA"/></g><clipPath id="SVGID_6_"><use overflow="visible" xlink:href="#SVGID_5_"/></clipPath><g transform="translate(67 10) scale(1)" clip-path="url(#SVGID_6_)"><rect height="119" width="36" stroke="#fff" y="899" x="18.5" fill="#14A085"/></g><clipPath id="SVGID_8_"><use overflow="visible" xlink:href="#SVGID_7_"/></clipPath><g transform="translate(67 10) scale(1)" clip-path="url(#SVGID_8_)"><rect height="153" width="36" stroke="#fff" y="732" x="93.5" fill="#2980BA"/></g><clipPath id="SVGID_10_"><use overflow="visible" xlink:href="#SVGID_9_"/></clipPath><g transform="translate(67 10) scale(1)" clip-path="url(#SVGID_10_)"><rect height="133" width="36" stroke="#fff" y="885" x="93.5" fill="#14A085"/></g><clipPath id="SVGID_12_"><use overflow="visible" xlink:href="#SVGID_11_"/></clipPath><g transform="translate(67 10) scale(1)" clip-path="url(#SVGID_12_)"><rect height="12" width="36" stroke="#fff" y="737" x="168.5" fill="#2980BA"/></g><clipPath id="SVGID_14_"><use overflow="visible" xlink:href="#SVGID_13_"/></clipPath><g transform="translate(67 10) scale(1)" clip-path="url(#SVGID_14_)"><rect height="269" width="36" stroke="#fff" y="749" x="168.5" fill="#14A085"/></g><clipPath id="SVGID_16_"><use overflow="visible" xlink:href="#SVGID_15_"/></clipPath><g transform="translate(67 10) scale(1)" clip-path="url(#SVGID_16_)"><rect height="66" width="36" stroke="#fff" y="745" x="243.5" fill="#2980BA"/></g><clipPath id="SVGID_18_"><use overflow="visible" xlink:href="#SVGID_17_"/></clipPath><g transform="translate(67 10) scale(1)" clip-path="url(#SVGID_18_)"><rect height="207" width="36" stroke="#fff" y="811" x="243.5" fill="#14A085"/></g><clipPath id="SVGID_20_"><use overflow="visible" xlink:href="#SVGID_19_"/></clipPath><g transform="translate(67 10) scale(1)" clip-path="url(#SVGID_20_)"><rect height="68" width="36" stroke="#fff" y="895" x="318.5" fill="#2980BA"/></g><clipPath id="SVGID_22_"><use overflow="visible" xlink:href="#SVGID_21_"/></clipPath><g transform="translate(67 10) scale(1)" clip-path="url(#SVGID_22_)"><rect height="55" width="36" stroke="#fff" y="963" x="318.5" fill="#14A085"/></g><clipPath id="SVGID_24_"><use overflow="visible" xlink:href="#SVGID_23_"/></clipPath><g transform="translate(67 10) scale(1)" clip-path="url(#SVGID_24_)"><rect height="1" width="36" stroke="#fff" y="918" x="393.5" fill="#2980BA"/></g><clipPath id="SVGID_26_"><use overflow="visible" xlink:href="#SVGID_25_"/></clipPath><g transform="translate(67 10) scale(1)" clip-path="url(#SVGID_26_)"><rect height="99" width="36" stroke="#fff" y="919" x="393.5" fill="#14A085"/></g><clipPath id="SVGID_28_"><use overflow="visible" xlink:href="#SVGID_27_"/></clipPath><g transform="translate(67 10) scale(1)" clip-path="url(#SVGID_28_)"><rect height="1" width="36" stroke="#fff" y="935" x="468.5" fill="#2980BA"/></g><clipPath id="SVGID_30_"><use overflow="visible" xlink:href="#SVGID_29_"/></clipPath><g transform="translate(67 10) scale(1)" clip-path="url(#SVGID_30_)"><rect height="82" width="36" stroke="#fff" y="936" x="468.5" fill="#14A085"/></g><clipPath id="SVGID_32_"><use overflow="visible" xlink:href="#SVGID_31_"/></clipPath><g transform="translate(67 10) scale(1)" clip-path="url(#SVGID_32_)"><polygon stroke="#fff" points="543.5 958 579.5 958 579.5 958" fill="#2980BA"/></g><clipPath id="SVGID_34_"><use overflow="visible" xlink:href="#SVGID_33_"/></clipPath><g transform="translate(67 10) scale(1)" clip-path="url(#SVGID_34_)"><rect height="60" width="36" stroke="#fff" y="958" x="543.5" fill="#14A085"/></g><clipPath id="SVGID_36_"><use overflow="visible" xlink:href="#SVGID_35_"/></clipPath><g transform="translate(67 10) scale(1)" clip-path="url(#SVGID_36_)"><rect height="2" width="36" stroke="#fff" y="958" x="617.5" fill="#2980BA"/></g><clipPath id="SVGID_38_"><use overflow="visible" xlink:href="#SVGID_37_"/></clipPath><g transform="translate(67 10) scale(1)" clip-path="url(#SVGID_38_)"><rect height="58" width="36" stroke="#fff" y="960" x="617.5" fill="#14A085"/></g><clipPath id="SVGID_40_"><use overflow="visible" xlink:href="#SVGID_39_"/></clipPath><g transform="translate(67 10) scale(1)" clip-path="url(#SVGID_40_)"><rect height="3" width="36" stroke="#fff" y="964" x="692.5" fill="#2980BA"/></g><clipPath id="SVGID_42_"><use overflow="visible" xlink:href="#SVGID_41_"/></clipPath><g transform="translate(67 10) scale(1)" clip-path="url(#SVGID_42_)"><rect height="51" width="36" stroke="#fff" y="967" x="692.5" fill="#14A085"/></g><clipPath id="SVGID_44_"><use overflow="visible" xlink:href="#SVGID_43_"/></clipPath><g transform="translate(67 10) scale(1)" clip-path="url(#SVGID_44_)"><rect height="26" width="36" stroke="#fff" y="992" x="767.5" fill="#2980BA"/></g><clipPath id="SVGID_46_"><use overflow="visible" xlink:href="#SVGID_45_"/></clipPath><g transform="translate(67 10) scale(1)" clip-path="url(#SVGID_46_)"><polygon stroke="#fff" points="767.5 1018 803.5 1018 803.5 1018" fill="#14A085"/></g><clipPath id="SVGID_48_"><use overflow="visible" xlink:href="#SVGID_47_"/></clipPath><g transform="translate(67 10) scale(1)" clip-path="url(#SVGID_48_)"><rect height="2" width="36" stroke="#fff" y="1e3" x="842.5" fill="#2980BA"/></g><clipPath id="SVGID_50_"><use overflow="visible" xlink:href="#SVGID_49_"/></clipPath><g transform="translate(67 10) scale(1)" clip-path="url(#SVGID_50_)"><rect height="16" width="36" stroke="#fff" y="1002" x="842.5" fill="#14A085"/></g><clipPath id="SVGID_52_"><use overflow="visible" xlink:href="#SVGID_51_"/></clipPath><g transform="translate(67 10) scale(1)" clip-path="url(#SVGID_52_)"><polygon stroke="#fff" points="917.5 1012 953.5 1012 953.5 1012" fill="#2980BA"/></g><clipPath id="SVGID_54_"><use overflow="visible" xlink:href="#SVGID_53_"/></clipPath><g transform="translate(67 10) scale(1)" clip-path="url(#SVGID_54_)"><rect height="6" width="36" stroke="#fff" y="1012" x="917.5" fill="#14A085"/></g><clipPath id="SVGID_56_"><use overflow="visible" xlink:href="#SVGID_55_"/></clipPath><g transform="translate(67 10) scale(1)" clip-path="url(#SVGID_56_)"><rect height="2" width="36" stroke="#fff" y="1013" x="992.5" fill="#2980BA"/></g><clipPath id="SVGID_58_"><use overflow="visible" xlink:href="#SVGID_57_"/></clipPath><g transform="translate(67 10) scale(1)" clip-path="url(#SVGID_58_)"><rect height="3" width="36" stroke="#fff" y="1015" x="992.5" fill="#14A085"/></g><clipPath id="SVGID_60_"><use overflow="visible" xlink:href="#SVGID_59_"/></clipPath><g transform="translate(67 10) scale(1)" clip-path="url(#SVGID_60_)"><polygon stroke="#fff" points="1067.5 1015 1103.5 1015 1103.5 1015" fill="#2980BA"/></g><clipPath id="SVGID_62_"><use overflow="visible" xlink:href="#SVGID_61_"/></clipPath><g transform="translate(67 10) scale(1)" clip-path="url(#SVGID_62_)"><rect height="3" width="36" stroke="#fff" y="1015" x="1067.5" fill="#14A085"/></g><g font-size="11" font-family="&apos;LucidaGrande&apos;" transform="translate(67,10)"><text transform="translate(21.15 648.5)" fill="#FFFFFF">70.0%</text>
<text stroke-linejoin="round" transform="translate(21.15 648.5)" stroke="#FFFFFF" stroke-width="2" fill="none">70.0%</text>
<text transform="translate(21.15 648.5)">70.0%</text>
<text transform="translate(96.15 725.5)" fill="#FFFFFF">55.0%</text>
<text stroke-linejoin="round" transform="translate(96.15 725.5)" stroke="#FFFFFF" stroke-width="2" fill="none">55.0%</text>
<text transform="translate(96.15 725.5)">55.0%</text>
<text transform="translate(171.15 730.5)" fill="#FFFFFF">54.2%</text>
<text stroke-linejoin="round" transform="translate(171.15 730.5)" stroke="#FFFFFF" stroke-width="2" fill="none">54.2%</text>
<text transform="translate(171.15 730.5)">54.2%</text>
<text transform="translate(246.15 738.5)" fill="#FFFFFF">52.7%</text>
<text stroke-linejoin="round" transform="translate(246.15 738.5)" stroke="#FFFFFF" stroke-width="2" fill="none">52.7%</text>
<text transform="translate(246.15 738.5)">52.7%</text>
<text transform="translate(321.15 888.5)" fill="#FFFFFF">23.8%</text>
<text stroke-linejoin="round" transform="translate(321.15 888.5)" stroke="#FFFFFF" stroke-width="2" fill="none">23.8%</text>
<text transform="translate(321.15 888.5)">23.8%</text>
<text transform="translate(396.15 911.5)" fill="#FFFFFF">19.3%</text>
<text stroke-linejoin="round" transform="translate(396.15 911.5)" stroke="#FFFFFF" stroke-width="2" fill="none">19.3%</text>
<text transform="translate(396.15 911.5)">19.3%</text>
<text transform="translate(471.15 928.5)" fill="#FFFFFF">16.0%</text>
<text stroke-linejoin="round" transform="translate(471.15 928.5)" stroke="#FFFFFF" stroke-width="2" fill="none">16.0%</text>
<text transform="translate(471.15 928.5)">16.0%</text>
<text transform="translate(545.15 951.5)" fill="#FFFFFF">11.5%</text>
<text stroke-linejoin="round" transform="translate(545.15 951.5)" stroke="#FFFFFF" stroke-width="2" fill="none">11.5%</text>
<text transform="translate(545.15 951.5)">11.5%</text>
<text transform="translate(620.15 951.5)" fill="#FFFFFF">11.5%</text>
<text stroke-linejoin="round" transform="translate(620.15 951.5)" stroke="#FFFFFF" stroke-width="2" fill="none">11.5%</text>
<text transform="translate(620.15 951.5)">11.5%</text>
<text transform="translate(695.15 957.5)" fill="#FFFFFF">10.5%</text>
<text stroke-linejoin="round" transform="translate(695.15 957.5)" stroke="#FFFFFF" stroke-width="2" fill="none">10.5%</text>
<text transform="translate(695.15 957.5)">10.5%</text>
<text transform="translate(773.63 985.5)" fill="#FFFFFF">5.1%</text>
<text stroke-linejoin="round" transform="translate(773.63 985.5)" stroke="#FFFFFF" stroke-width="2" fill="none">5.1%</text>
<text transform="translate(773.63 985.5)">5.1%</text>
<text transform="translate(848.63 993.5)" fill="#FFFFFF">3.5%</text>
<text stroke-linejoin="round" transform="translate(848.63 993.5)" stroke="#FFFFFF" stroke-width="2" fill="none">3.5%</text>
<text transform="translate(848.63 993.5)">3.5%</text>
<text transform="translate(923.63 1005.5)" fill="#FFFFFF">1.2%</text>
<text stroke-linejoin="round" transform="translate(923.63 1005.5)" stroke="#FFFFFF" stroke-width="2" fill="none">1.2%</text>
<text transform="translate(923.63 1005.5)">1.2%</text>
<text transform="translate(998.63 1006.5)" fill="#FFFFFF">0.9%</text>
<text stroke-linejoin="round" transform="translate(998.63 1006.5)" stroke="#FFFFFF" stroke-width="2" fill="none">0.9%</text>
<text transform="translate(998.63 1006.5)">0.9%</text>
<text transform="translate(1073.6 1008.5)" fill="#FFFFFF">0.7%</text>
<text stroke-linejoin="round" transform="translate(1073.6 1008.5)" stroke="#FFFFFF" stroke-width="2" fill="none">0.7%</text>
<text transform="translate(1073.6 1008.5)">0.7%</text>
</g><g font-size="13" font-family="&apos;LucidaGrande&apos;" fill="#313131"><text transform="matrix(.7071 -.7071 .7071 .7071 65.92 1086.1)">PANTHER</text>
<text transform="matrix(.7071 -.7071 .7071 .7071 116.82 1110)">CATH-Gene3D</text>
<text transform="matrix(.7071 -.7071 .7071 .7071 235.11 1066.6)">Pfam</text>
<text transform="matrix(.7071 -.7071 .7071 .7071 272.44 1104.2)">SUPERFAMILY</text>
<text transform="matrix(.7071 -.7071 .7071 .7071 386.83 1064.6)">CDD</text>
<text transform="matrix(.7071 -.7071 .7071 .7071 437.04 1089.3)">TIGRFAMs</text>
<text transform="matrix(.7071 -.7071 .7071 .7071 483.67 1117.5)">PROSITE profiles</text>
<text transform="matrix(.7071 -.7071 .7071 .7071 599.13 1076.9)">HAMAP</text>
<text transform="matrix(.7071 -.7071 .7071 .7071 675.59 1075.3)">SMART</text>
<text transform="matrix(.7071 -.7071 .7071 .7071 757.88 1067.9)">PIRSF</text>
<text transform="matrix(.7071 -.7071 .7071 .7071 802.96 1097.7)">MobiDB Lite</text>
<text transform="matrix(.7071 -.7071 .7071 .7071 899.93 1075.6)">PRINTS</text>
<text transform="matrix(.7071 -.7071 .7071 .7071 929.55 1120.8)">PROSITE patterns</text>
<text transform="matrix(.7071 -.7071 .7071 .7071 1059.1 1066.2)">SFLD</text>
<text transform="matrix(.7071 -.7071 .7071 .7071 1120 1080.1)">ProDom</text>
</g><g font-size="13" font-family="&apos;LucidaGrande&apos;" fill="#313131"><text transform="translate(43.78 1032.5)">0</text>
<text transform="translate(35.56 980.5)">10</text>
<text transform="translate(35.56 929.5)">20</text>
<text transform="translate(35.56 877.5)">30</text>
<text transform="translate(35.56 825.5)">40</text>
<text transform="translate(35.56 773.5)">50</text>
<text transform="translate(35.56 721.5)">60</text>
<text transform="translate(35.56 669.5)">70</text>
<text transform="translate(35.56 617.5)">80</text>
</g><g font-size="45.843" font-family="&apos;ArialMT&apos;" fill="#313131"><text transform="translate(-30.17 643.79)">B)</text>
<text transform="translate(-30.17 43.789)">A)</text>
</g></svg>
