<?xml version="1.0" encoding="utf-8"?>
<!-- Generator: Adobe Illustrator 15.1.0, SVG Export Plug-In . SVG Version: 6.00 Build 0)  -->
<!DOCTYPE svg PUBLIC "-//W3C//DTD SVG 1.1//EN" "http://www.w3.org/Graphics/SVG/1.1/DTD/svg11.dtd">
<svg version="1.1" id="Layer_1" xmlns="http://www.w3.org/2000/svg" x="0px" y="0px"
     width="8px" height="14px" viewBox="0 0 8 14" enable-background="new 0 0 8 14" xml:space="preserve">
<path fill="#666666" d="M0.37,12.638l5.726-5.565L0.531,1.347C0.252,1.059,0.261,0.601,0.547,0.321
    c0.289-0.279,0.746-0.272,1.026,0.016l6.062,6.24c0,0.002,0.006,0.004,0.008,0.006c0.068,0.07,0.119,0.156,0.156,0.244
    C7.902,7.088,7.846,7.399,7.631,7.61c-0.002,0.004-0.006,0.004-0.01,0.006l-6.238,6.063c-0.143,0.141-0.331,0.209-0.514,0.205
    c-0.187-0.006-0.372-0.078-0.511-0.221C0.076,13.376,0.083,12.919,0.37,12.638"/>
</svg>
