<?xml version="1.0" encoding="utf-8"?>
<!-- Generator: Adobe Illustrator 14.0.0, SVG Export Plug-In . SVG Version: 6.00 Build 43363)  -->
<!DOCTYPE svg PUBLIC "-//W3C//DTD SVG 1.1//EN" "http://www.w3.org/Graphics/SVG/1.1/DTD/svg11.dtd">
<svg version="1.1" id="Layer_1" xmlns="http://www.w3.org/2000/svg" xmlns:xlink="http://www.w3.org/1999/xlink" x="0px" y="0px"
	 width="70px" height="70px" viewBox="0 0 70 70" enable-background="new 0 0 70 70" xml:space="preserve">
<g transform="scale(0.3)">
	<rect x="49.999" y="50" display="none" opacity="0.1" enable-background="new    " width="150" height="150"/>
	
		<rect x="41.666" y="41.667" opacity="0.35" fill="#86888A" stroke="#A5A5A5" stroke-width="10" enable-background="new    " width="150" height="150"/>
	<rect x="24.999" y="25" fill="#53C720" stroke="#36A30F" stroke-width="10" width="150" height="150"/>
	<g>
		<path fill="#FFFFFF" d="M49.649,46.857h38.146c8.602,0,15.158,0.658,19.671,1.974c6.064,1.785,11.257,4.959,15.583,9.518
			c4.323,4.559,7.614,10.142,9.87,16.745c2.256,6.605,3.385,14.749,3.385,24.43c0,8.509-1.058,15.843-3.174,21.999
			c-2.585,7.523-6.273,13.61-11.068,18.262c-3.62,3.525-8.509,6.276-14.666,8.252c-4.608,1.455-10.765,2.184-18.473,2.184H49.649
			V46.857z M70.52,64.342v68.464h15.583c5.828,0,10.036-0.329,12.62-0.986c3.385-0.846,6.193-2.282,8.426-4.303
			c2.231-2.018,4.054-5.345,5.464-9.974c1.41-4.632,2.116-10.941,2.116-18.932s-0.706-14.126-2.116-18.403
			s-3.385-7.616-5.923-10.011c-2.537-2.397-5.758-4.02-9.658-4.867c-2.915-0.658-8.626-0.986-17.134-0.986H70.52z"/>
	</g>
</g>
</svg>
