<?xml version="1.0" encoding="UTF-8" standalone="no"?>
<svg
  xmlns="http://www.w3.org/2000/svg"
  width="86.487846mm"
  height="17.808222mm"
  viewBox="0 0 306.453 63.099998"
  id="ico-more"
  version="1.1">
  <defs id="defs4" />
  <g
    id="layer1"
    transform="translate(-141.437,-314.39)"
  >
    <path
       d="m 294.664,314.39 c -17.263,0 -31.55,14.286 -31.55,31.55 0,17.263 14.287,31.55 31.55,31.55 17.263,0 31.55,-14.287 31.55,-31.55 0,-17.263 -14.287,-31.55 -31.55,-31.55 z"
       id="path4137"
       fill="white"
    />
    <path
       d="m 416.341,314.39 c -17.264,0 -31.551,14.286 -31.551,31.55 0,17.263 14.287,31.55 31.551,31.55 17.262,0 31.549,-14.287 31.549,-31.55 0,-17.263 -14.287,-31.55 -31.549,-31.55 z"
       id="path4139"
       fill="white"
    />
    <path
       d="m 173.582,314.39 c -17.263,0 -32.145,14.286 -32.145,31.55 0,17.263 14.287,31.55 32.145,31.55 17.263,0 32.145,-14.287 32.145,-31.55 -0.595,-17.263 -14.882,-31.55 -32.145,-31.55 z"
       id="path4141"
       fill="white"
    />
  </g>
</svg>
