<svg xmlns="http://www.w3.org/2000/svg" width="24" height="24" viewBox="0 0 24 24">
  <!--<path d="M6 6h-6v-6h6v6zm9-6h-6v6h6v-6zm9 0h-6v6h6v-6zm-18 9h-6v6h6v-6zm9 0h-6v6h6v-6zm9 0h-6v6h6v-6zm-18 9h-6v6h6v-6zm9 0h-6v6h6v-6zm9 0h-6v6h6v-6z"  style="fill:#71818a;"/>-->
  <g fill="#71818a">
    <circle cx="3" cy="12" r="3" />
    <circle cx="21" cy="3" r="3" />
    <circle cx="21" cy="12" r="3" />
    <circle cx="21" cy="21" r="3" />
  </g>
  <g stroke="#71818a" fill="none">
    <path d="M3 12 21 3" />
    <path d="M3 12 H21" />
    <path d="M3 12 21 21" />
  </g>
</svg>
