<?xml version="1.0" encoding="utf-8"?>
<!-- Generator: Adobe Illustrator 14.0.0, SVG Export Plug-In . SVG Version: 6.00 Build 43363)  -->
<!DOCTYPE svg PUBLIC "-//W3C//DTD SVG 1.1//EN" "http://www.w3.org/Graphics/SVG/1.1/DTD/svg11.dtd">
<svg version="1.1" id="table_view" xmlns="http://www.w3.org/2000/svg" xmlns:xlink="http://www.w3.org/1999/xlink" x="0px" y="0px"
	width="24px"
	 height="24px" viewBox="0 0 24 24" enable-background="new 0 0 24 24"
	 xml:space="preserve">
<path fill="#71818A" d="M-0.241,0.071v23.835h23.889V0.071H-0.241z M7.171,22.252H1.465v-5.706h5.706V22.252z M7.171,14.887H1.465
	V9.183h5.706V14.887z M7.171,7.526H1.465V1.82h5.706V7.526z M14.534,22.252H8.828v-5.706h5.706L14.534,22.252L14.534,22.252z
	 M14.534,14.887H8.828V9.183h5.706L14.534,14.887L14.534,14.887z M14.534,7.526H8.828V1.82h5.706L14.534,7.526L14.534,7.526z
	 M21.896,22.252h-5.704v-5.706h5.704V22.252z M21.896,14.887h-5.704V9.183h5.704V14.887z M21.896,7.526h-5.704V1.82h5.704V7.526z"/>
</svg>
