<?xml version="1.0" encoding="UTF-8" standalone="no"?>
<!-- Generator: Adobe Illustrator 14.0.0, SVG Export Plug-In . SVG Version: 6.00 Build 43363)  -->
<svg xmlns:rdf="http://www.w3.org/1999/02/22-rdf-syntax-ns#" xmlns="http://www.w3.org/2000/svg" enable-background="new 0 0 24 24" xml:space="preserve" height="23.375" width="23.374" version="1.1" y="0px" x="0px" xmlns:cc="http://creativecommons.org/ns#" xmlns:dc="http://purl.org/dc/elements/1.1/" viewBox="0 0 23.374001 23.375"><metadata><rdf:RDF><cc:Work rdf:about=""><dc:format>image/svg+xml</dc:format><dc:type rdf:resource="http://purl.org/dc/dcmitype/StillImage"/><dc:title/></cc:Work></rdf:RDF></metadata><g transform="translate(0 -.625)" display="none"><rect display="inline" height="46.5" width="60.5" y="-5" x="-25.75" fill="#fbb57f"/></g><g transform="translate(0 -.625)"><path fill="#71818a" d="m21.427 0.625h-19.479c-1.076 0-1.948 0.872-1.948 1.948v19.479c0 1.076 0.872 1.948 1.948 1.948h19.479c1.075 0 1.947-0.872 1.947-1.947v-19.48c0.001-1.076-0.871-1.948-1.947-1.948zm-14.256 21.874h-4.578c-0.344 0-0.943-0.405-0.943-1.062v-4.114h5.521v5.176zm0-6.682h-5.52v-5.174h5.521v5.174zm0-6.677h-5.52v-5.177h5.521v5.177zm7.125 13.359h-5.521v-5.176h5.521v5.176zm0-6.682h-5.521v-5.174h5.521v5.174zm0-6.677h-5.521v-5.177h5.521v5.177zm7.123 13.359h-5.519v-5.176h5.519v5.176zm0-6.682h-5.519v-5.174h5.519v5.174zm0-6.677h-5.519v-5.177h5.519v5.177z"/></g></svg>
