<?xml version="1.0" encoding="utf-8"?>
<!-- Generator: Adobe Illustrator 14.0.0, SVG Export Plug-In . SVG Version: 6.00 Build 43363)  -->
<!DOCTYPE svg PUBLIC "-//W3C//DTD SVG 1.1//EN" "http://www.w3.org/Graphics/SVG/1.1/DTD/svg11.dtd">
<svg version="1.1" id="table_view" xmlns="http://www.w3.org/2000/svg" xmlns:xlink="http://www.w3.org/1999/xlink" x="0px" y="0px"
	 width="23.375px" height="23.375px" viewBox="0 0 23.375 23.375" enable-background="new 0 0 23.375 23.375" xml:space="preserve">
<path fill="#71818A" d="M23.375,21.433c0,1.073-0.869,1.942-1.941,1.942H2.005c-1.073,0-1.943-0.869-1.943-1.942V2.005
	c0-1.073,0.87-1.942,1.943-1.942h19.426c1.072,0,1.942,0.87,1.942,1.942L23.375,21.433L23.375,21.433z"/>
<path fill="#FFFFFF" d="M0.062,1.809v21.566 M7.214,21.878c0,0-4.222,0-4.565,0c-0.343,0-0.94-0.404-0.94-1.059
	c0-0.656,0-4.104,0-4.104h5.505V21.878z M7.214,15.213H1.709v-5.159h5.505L7.214,15.213L7.214,15.213z M7.214,8.555H1.709V3.392
	h5.505L7.214,8.555L7.214,8.555z M14.32,21.878H8.814v-5.163h5.506V21.878L14.32,21.878z M14.32,15.213H8.814v-5.159h5.506V15.213
	L14.32,15.213z M14.32,8.555H8.814V3.392h5.506V8.555L14.32,8.555z M21.425,21.006c0,0.541-0.46,0.872-0.958,0.872s-4.546,0-4.546,0
	v-5.163h5.504C21.425,16.715,21.425,20.466,21.425,21.006z M21.425,15.213h-5.504v-5.159h5.504V15.213z M21.425,8.555h-5.504V3.392
	h5.504V8.555z"/>
</svg>
