<?xml version="1.0" encoding="utf-8"?>
<!-- Generator: Adobe Illustrator 14.0.0, SVG Export Plug-In . SVG Version: 6.00 Build 43363)  -->
<!DOCTYPE svg PUBLIC "-//W3C//DTD SVG 1.1//EN" "http://www.w3.org/Graphics/SVG/1.1/DTD/svg11.dtd">
<svg version="1.1" id="HM_x0D_vP_x0D_" xmlns="http://www.w3.org/2000/svg" xmlns:xlink="http://www.w3.org/1999/xlink" x="0px"
	 y="0px" width="422px" height="422px" viewBox="0 0 422 422" enable-background="new 0 0 422 422" xml:space="preserve">
<g enable-background="new    ">
	<path d="M141.772,83.632c2.981,4.974,5.09,8.078,6.336,9.318c0.245,0.25,0.681,0.81,1.305,1.677
		c0.617,0.874,1.054,1.433,1.304,1.678c0.245,0.995,0.123,1.49-0.373,1.49c0.245,0.746,0.617,1.928,1.118,3.541
		c0.495,1.619,0.868,2.795,1.118,3.541c0,0.745-0.128,1.118-0.373,1.118c-0.5,0-0.874-0.122-1.118-0.373
		c-0.5-0.99-0.745-1.613-0.745-1.863l1.118,4.1c0,0.745-0.128,1.118-0.373,1.118c-0.5,0-0.996-0.373-1.491-1.118
		c-0.25-0.745-0.874-2.108-1.863-4.1c0.245,0.745,0.617,2.114,1.118,4.1c0,0.501-0.128,0.745-0.373,0.745
		c-0.5,0.251-0.874,0.064-1.118-0.559c-0.25-0.617-0.373-1.055-0.373-1.305c-0.25-0.495-0.559-1.305-0.932-2.423
		c-0.373-1.118-0.688-1.922-0.932-2.422c0,0.5,0.059,1.182,0.187,2.05c0.123,0.873,0.187,1.433,0.187,1.677
		c0,0.745-0.064,1.118-0.187,1.118c-0.128,0-0.437-0.244-0.932-0.745c-0.25-0.245-0.373-0.56-0.373-0.932
		c0-0.373-0.128-0.682-0.373-0.933c-0.25-0.989-0.687-2.48-1.304-4.472c-0.624-1.986-1.06-3.478-1.305-4.473l-1.118-3.728
		c-0.746-0.99-1.992-2.545-3.727-4.659c-1.741-2.107-2.982-3.785-3.727-5.031c-2.737-3.227-4.228-4.968-4.473-5.218l-0.746-0.745
		c-0.25-0.245-0.687-0.933-1.304-2.051c-0.623-1.118-1.06-1.921-1.305-2.422c-0.5-0.746-1.182-1.8-2.05-3.168
		c-0.874-1.363-1.555-2.423-2.05-3.169c-1.491-2.73-2.859-5.462-4.1-8.199c-0.25,0-0.5-0.495-0.745-1.491
		c-0.25,1.992-0.746,4.91-1.491,8.759c-0.745,3.855-1.304,6.522-1.677,8.014c-0.373,1.491-0.314,4.601,0.186,9.317
		c0.245,1.247,0.682,3.354,1.305,6.337c0.617,2.981,0.932,5.346,0.932,7.081c0,2.981,0.123,7.21,0.373,12.672
		c0.245,2.982,0.123,5.964-0.373,8.945c-0.501,1.491-1.118,3.978-1.863,7.454c-0.746,3.482-1.247,6.214-1.491,8.2
		c-0.996,5.468-0.874,10.687,0.373,15.653c0.495,2.487,0.373,6.214-0.373,11.182c-1.741,7.454-2.859,12.801-3.354,16.026
		c0,0.99,0,1.986,0,2.982c0,2.48,0.373,4.717,1.118,6.708c0.245,0.495,0.746,1.118,1.491,1.864c0.745,0.745,1.24,1.24,1.491,1.49
		c0.245,0.99,0.373,1.735,0.373,2.236c-0.25,0.245-0.623,0.373-1.118,0.373h-4.845c-0.501,0-1.118-0.128-1.863-0.373
		c-1.247-0.996-2.114-1.741-2.609-2.236c-0.25-0.501-0.373-1.246-0.373-2.236c0-2.236,0.123-3.727,0.373-4.473
		c0-0.5,0.059-1.118,0.187-1.863c0.123-0.745,0.187-1.246,0.187-1.49c0-4.724-0.128-8.2-0.373-10.437c0-0.99-0.314-3.04-0.932-6.149
		c-0.623-3.104-0.81-5.526-0.559-7.269c0.495-3.477,0.746-5.963,0.746-7.454c0-0.495-0.373-2.358-1.118-5.591
		c-0.501-1.985-0.746-3.599-0.746-4.845c0-4.968,0-8.694,0-11.182l-1.118-14.535c0-1.986,0.123-3.6,0.373-4.846
		c0-0.745-0.25-1.118-0.746-1.118v9.318c0,0.995-0.128,2.608-0.373,4.845c-0.25,2.236-0.373,3.855-0.373,4.846
		c-0.5,2.981-0.745,5.218-0.745,6.708c0,5.469-0.501,10.063-1.491,13.791c-0.5,0.995-0.5,2.859,0,5.591
		c0.495,4.723,0.373,9.073-0.373,13.045l-1.118,6.708c0,0.501-0.064,1.247-0.186,2.236c-0.128,0.99-0.315,1.735-0.559,2.236
		c0,0.495,0.058,1.177,0.186,2.05c0.123,0.868,0.187,1.55,0.187,2.051v3.727c0,0.495,0.058,1.118,0.187,1.863
		c0.122,0.746,0.186,1.241,0.186,1.491c0,1.24-0.128,1.986-0.373,2.236l-3.727,2.981c-0.25,0-0.559,0-0.932,0
		c-0.373,0-1.06,0-2.05,0h-2.609l-1.118-0.372c0-0.996,0.123-1.619,0.373-1.864l1.864-1.863c1.735-1.741,2.481-3.482,2.236-5.218
		c0-1.246,0.122-2.114,0.373-2.609c0.245-1.246,0.123-3.727-0.373-7.454c0-0.495-0.437-2.609-1.305-6.336
		c-0.874-3.728-1.433-6.709-1.677-8.945c-0.25-2.236,0-5.713,0.746-10.436c0.245-0.245,0.373-0.804,0.373-1.678
		c0-0.867,0.123-1.549,0.373-2.05c0.245-4.473-0.373-10.063-1.864-16.771c-0.746-3.478-1.369-6.954-1.864-10.437
		c0-1.24,0-3.104,0-5.591c0-1.24,0.123-3.04,0.373-5.404c0.245-2.358,0.373-4.158,0.373-5.404v-1.49c0-3.477,0.495-6.709,1.491-9.69
		l0.746-6.709c0-0.245,0.058-0.804,0.187-1.678c0.122-0.867,0.186-1.549,0.186-2.05c-0.5-4.222-0.874-7.454-1.118-9.69
		c-0.996-4.222-1.741-7.454-2.236-9.69v-1.118c-0.996,1.992-2.486,4.974-4.472,8.945c-0.501,0.745-1.369,1.991-2.609,3.727
		c-1.247,1.741-2.114,2.982-2.609,3.728c-0.25,0.501-0.745,1.368-1.491,2.609c-0.746,1.246-1.369,2.113-1.863,2.608
		c0,0.251-1.369,2.114-4.1,5.591c-4.228,4.974-6.709,8.199-7.454,9.69c-0.25,0.251-0.437,0.81-0.559,1.678
		c-0.128,0.873-0.314,1.555-0.559,2.05c-0.25,0.995-0.688,2.486-1.305,4.473c-0.623,1.991-1.06,3.482-1.304,4.472
		c-0.25,0.251-0.437,0.56-0.559,0.933c-0.128,0.372-0.187,0.687-0.187,0.932c0,0.25-0.128,0.437-0.373,0.559
		c-0.25,0.128-0.501,0.187-0.746,0.187v-1.118c0-0.495,0-1.177,0-2.05c0-0.868,0-1.427,0-1.678c0,0.501-0.187,1.247-0.559,2.236
		c-0.373,0.996-0.687,1.864-0.932,2.609c0,1.246-0.501,1.863-1.491,1.863c-0.25,0-0.373-0.372-0.373-1.118
		c0.495-1.735,0.868-3.104,1.118-4.1c-0.996,2.236-1.741,3.728-2.236,4.473c-0.5,0.745-0.874,1.118-1.118,1.118
		c-0.25-0.244-0.373-0.745-0.373-1.491l1.118-3.727c-0.25,0.25-0.373,0.559-0.373,0.932s-0.128,0.559-0.373,0.559
		c-0.5,0.501-0.874,0.746-1.118,0.746c-0.25-0.245-0.373-0.746-0.373-1.491c0.245-0.495,0.617-1.549,1.118-3.168
		c0.495-1.613,0.868-2.795,1.118-3.541c-0.996,0-1.118-0.617-0.373-1.863c0.245-0.244,0.495-0.617,0.745-1.118
		c0.245-0.495,0.495-0.932,0.746-1.305c0.245-0.372,0.617-0.682,1.118-0.932c1.986-1.491,4.1-4.595,6.336-9.317
		c2.481-4.968,4.1-8.072,4.845-9.318c0-0.244,1.491-2.48,4.473-6.709c0.495-0.494,1.118-1.304,1.864-2.422
		c0.745-1.118,1.24-1.922,1.491-2.423c2.481-4.223,4.845-9.189,7.082-14.908c1.491-4.473,4.595-7.326,9.318-8.572
		c2.48-0.495,5.218-1.736,8.2-3.728c0.495-0.745,0.868-1.491,1.118-2.236v-2.609c0-0.244-0.064-0.495-0.187-0.745
		c-0.128-0.244-0.187-0.495-0.187-0.745c0-0.245-0.128-0.746-0.373-1.491c-0.25-0.745-0.373-1.24-0.373-1.49h-0.373
		c-0.745-0.245-1.369-1.177-1.863-2.796c-0.501-1.613-0.501-2.667,0-3.168l0.373-0.373c0.245,0,0.495,0,0.746,0
		c-0.501-2.981-0.128-5.34,1.118-7.081c0.99-1.735,2.731-2.854,5.218-3.354h1.118c1.24,0,2.108,0.128,2.609,0.373
		c1.986,0.5,3.477,1.618,4.473,3.354c1.491,2.235,1.863,4.601,1.118,7.081l1.118,0.373c0.495,0.501,0.495,1.49,0,2.981
		c-0.501,1.491-1.118,2.486-1.864,2.981h-0.373c0,0.745-0.25,1.741-0.746,2.981c-1.246,3.232-0.623,5.469,1.864,6.709
		c4.222,2.236,6.708,3.482,7.454,3.728c4.717,1.246,7.949,4.35,9.69,9.317c1.735,5.719,4.473,11.432,8.2,17.145
		c0.245,0.501,0.868,1.247,1.864,2.236c0.99,0.996,1.613,1.864,1.863,2.609C137.049,73.569,138.791,77.424,141.772,83.632z"/>
	<path d="M404.865,173.456c0.244,0.244,0.495,0.495,0.745,0.745c0.245,0.244,0.495,0.682,0.745,1.305
		c0.245,0.617,0.245,1.305,0,2.05c-0.25,0.745-0.623,1.118-1.118,1.118c-0.5,0-0.873,0.122-1.118,0.372
		c-0.25,0.746-0.995,0.373-2.236-1.117c0-0.251-0.5-0.56-1.49-0.933c-0.996-0.372-1.863-0.559-2.609-0.559l-1.118-0.373
		c0.245,1.491-0.128,2.731-1.118,3.728c-0.745,0.495-1.368,0.431-1.863-0.187c-0.501-0.623-0.745-1.433-0.745-2.423
		c0-1.49-0.874-2.114-2.609-1.863c-0.996,0-1.619,0-1.863,0c-0.251,0-0.251-0.501,0-1.491c0.495-0.501,0.745-1.49,0.745-2.981
		s0-2.854,0-4.1v-1.863c-2.737,2.736-5.218,4.973-7.454,6.708c-2.981,2.481-5.841,4.101-8.572,4.846
		c-6.214,0.745-9.941,1.613-11.182,2.608c-2.486,1.491-6.837,2.982-13.045,4.473c-1.741,0.495-7.704,1.118-17.89,1.864
		c-0.996,0.244-2.609,0.932-4.846,2.05s-4.1,1.922-5.591,2.423c-1.49,0.244-3.296,0.058-5.404-0.56
		c-2.113-0.623-3.913-1.183-5.404-1.677l-2.236-1.118c-2.486-1.491-3.354-4.351-2.608-8.572c0.495-3.483,0.495-6.337,0-8.573
		c0-0.494,0.058-1.677,0.187-3.54c0.122-1.864,0.186-3.168,0.186-3.914c0-0.745-0.687-1.735-2.05-2.981
		c-1.368-1.24-2.422-1.986-3.168-2.236c-0.25-0.244-1.368-2.295-3.354-6.149c-1.992-3.85-3.169-5.777-3.541-5.777
		c-0.373,0-2.423-0.431-6.15-1.305c-3.727-0.867-5.963-1.427-6.709-1.677c-11.682-2.481-17.145-1.613-16.398,2.608l0.372,0.746
		c0,0.25-0.063,0.559-0.187,0.932c-0.128,0.373-0.373,0.745-0.745,1.118c-0.372,0.372-0.81,0.501-1.305,0.372
		c-0.501-0.122-1.118-0.617-1.863-1.49c-0.745-0.868-1.368-1.678-1.864-2.423l-0.744-1.118c0,3.232-0.624,5.096-1.864,5.591
		c-0.995,0.25-1.741-0.495-2.236-2.236c0-0.244-0.128-0.495-0.372-0.745l-1.119-4.101c-0.25,0-0.873,0.438-1.863,1.305
		c-0.996,0.874-1.863,1.061-2.609,0.56c-1.246-0.99,0.123-3.85,4.101-8.572c0.495-0.746,1.054-2.05,1.677-3.914
		c0.617-1.863,0.932-2.917,0.932-3.168c0-0.244,0.187-0.867,0.56-1.863c0.372-0.99,0.868-2.236,1.491-3.728
		c0.617-1.49,1.054-2.854,1.305-4.1c0.989-3.477,3.598-6.086,7.826-7.827c3.477-1.24,6.709-3.354,9.69-6.336
		c7.204-7.204,11.054-11.927,11.554-14.163c0.245-0.745-0.623-2.294-2.608-4.659c-1.991-2.358-4.351-5.031-7.081-8.013
		c-2.738-2.981-4.229-4.595-4.473-4.846c-10.191-12.672-15.904-19.998-17.145-21.989c-6.96-10.932-10.437-19.876-10.437-26.836
		c0-9.439,0.372-15.152,1.118-17.145c0.99-1.735,1.735-1.24,2.236,1.491c0,1.741,0,3.978,0,6.709
		c-0.746,8.7,2.609,18.14,10.063,28.325c2.236,3.232,6.209,8.264,11.928,15.096c5.713,6.837,9.066,10.622,10.063,11.367
		c0,0.25,0.56,0.932,1.678,2.05s2.295,2.236,3.541,3.354c1.24,1.118,2.667,2.301,4.285,3.541c1.613,1.246,2.918,2.05,3.914,2.423
		c0.99,0.372,1.863,0.314,2.609-0.187c1.49-1.24,5.59-2.981,12.299-5.218s11.555-3.354,14.536-3.354
		c11.182,0,19.998,0.995,26.463,2.981c3.226,0.996,6.895,2.981,10.994,5.963c4.101,2.982,7.391,6.337,9.877,10.063
		c1.491,2.487,3.104,5.905,4.846,10.25c1.735,4.35,3.227,8.142,4.473,11.367l1.49,4.846c5.463,5.218,8.945,9.69,10.437,13.417
		c0.99,2.487,1.922,5.469,2.795,8.945c0.868,3.482,1.305,5.591,1.305,6.336c0,0.251,0.059,1.183,0.187,2.796
		c0.122,1.619,0.309,3.482,0.559,5.591c0.245,2.113,0.495,3.791,0.746,5.031l-0.746,8.572c2.731,0.501,4.718,0.996,5.964,1.491
		c0.495,0.25,0.932,0.745,1.305,1.49c0.372,0.746,0.681,1.491,0.932,2.236V173.456z M316.532,153.702
		c0-0.495,0.187-1.363,0.56-2.609c0.372-1.24,0.617-2.108,0.745-2.608c0.122-0.495-0.064-0.99-0.56-1.491
		c-1.49-0.244-3.231,1.118-5.218,4.1c-0.25,0.501-0.559,1.118-0.932,1.864c-0.373,0.745-0.688,1.555-0.932,2.422
		c-0.251,0.874-0.251,1.619,0,2.236c0.244,0.623,0.745,0.932,1.491,0.932C314.913,156.811,316.532,155.192,316.532,153.702z
		 M319.887,135.439c2.236-2.982,4.286-5.463,6.149-7.455c1.864-1.985,3.914-3.104,6.15-3.354c0.244-0.245,0.187-1.363-0.187-3.354
		c-0.373-1.986-0.81-3.354-1.305-4.101c0-0.244-0.996-1.549-2.981-3.913c-1.992-2.358-3.791-4.717-5.404-7.081
		c-1.619-2.359-2.551-4.036-2.796-5.032c-0.25-2.48-1.368-3.104-3.354-1.863c-1.49,0.996-2.236,2.737-2.236,5.218
		c-0.25,1.992,0.059,4.473,0.933,7.454c0.867,2.982,0.932,5.096,0.186,6.336c-1.991,5.219-2.364,8.823-1.118,10.809L319.887,135.439
		z M342.995,166.747c0.495-1.491,0.372-3.354-0.373-5.591s-2.364-3.599-4.845-4.1c-1.491-0.245-3.11,0.128-4.846,1.118
		c-1.741,0.995-3.109,2.236-4.1,3.727l-1.491,1.864c-0.25,0.745-0.128,1.49,0.373,2.235c0.495,0.746,0.99,1.305,1.49,1.678
		c0.495,0.373,1.305,0.745,2.423,1.118s1.8,0.688,2.05,0.932c1.241,0.501,2.982,0.437,5.218-0.187
		C341.131,168.925,342.494,167.993,342.995,166.747z M385.484,148.856c1.735-2.236,2.608-6.458,2.608-12.672
		c0-2.236-0.372-5.031-1.118-8.386c-0.745-3.354-1.368-5.032-1.863-5.032c-1.741,0.501-4.351,1.369-7.827,2.609
		c-5.719,1.991-9.94,3.109-12.672,3.354c-3.232,0.501-5.719,2.236-7.454,5.218c-1.246,2.236-1.864,4.351-1.864,6.336
		c0,1.992,0.309,3.482,0.933,4.473c0.617,0.996,1.304,1.491,2.05,1.491c0.495,0.25,1.176,0.187,2.05-0.187
		c0.867-0.373,1.549-0.682,2.05-0.932l0.745-0.373c0.245-0.244,0.495-0.431,0.746-0.559c0.244-0.123,0.803-0.432,1.677-0.933
		c0.868-0.494,1.491-0.804,1.863-0.932c0.373-0.122,0.682-0.058,0.932,0.187c0.245,2.236-0.623,4.351-2.608,6.336
		c-0.501,0.251-1.061,0.623-1.678,1.118c-0.623,0.501-0.995,0.81-1.118,0.932c-0.128,0.129-0.25,0.373-0.372,0.746
		c-0.128,0.372-0.064,0.687,0.187,0.932c0.989,1.991,4.344,3.232,10.063,3.727C377.284,156.561,381.507,154.074,385.484,148.856z"/>
</g>
<g enable-background="new    ">
	<path d="M152.645,312.95c-0.231,3.215-0.806,6.312-1.72,9.29c0.226,0.688,0.57,1.494,1.032,2.408
		c0.457,0.919,1.774,2.182,3.957,3.784c2.177,1.607,4.757,2.64,7.741,3.097c0.457,0,0.914,0,1.376,0
		c2.752,0,5.161,0.688,7.225,2.063c2.064,1.15,3.785,2.925,5.161,5.333c1.376,2.408,2.064,4.763,2.064,7.053
		c0,2.526-0.575,4.935-1.72,7.225c-2.983,4.817-7.225,7.226-12.729,7.226c-2.527,0-4.935-0.688-7.225-2.064
		c-2.526-1.376-4.473-3.554-5.849-6.537c-3.671-4.354-7.8-6.536-12.385-6.536c-0.688,0-1.376,0.118-2.064,0.344h-0.344
		c-2.064,2.064-4.247,4.016-6.537,5.849l-0.344,0.344c-2.064,4.591-0.806,9.634,3.785,15.138c2.521,1.839,4.354,4.129,5.505,6.881
		c0.457,1.603,0.688,3.21,0.688,4.816c0,4.129-1.376,7.569-4.128,10.321c-2.752,2.753-6.193,4.129-10.321,4.129
		c-2.752,0-5.451-0.919-8.085-2.752c-2.64-1.839-4.419-4.016-5.333-6.537c-0.688-1.607-1.032-3.215-1.032-4.816
		c0-1.376,0.226-2.753,0.688-4.129c0-7.106-2.295-11.811-6.881-14.105c-0.231,0-0.462,0-0.688,0c-1.376,0-2.752,0-4.129,0
		c-1.376,0-2.752,0-4.128,0c-0.231,0-0.462,0-0.688,0c-4.591,2.295-6.881,6.999-6.881,14.105c0.457,1.376,0.688,2.753,0.688,4.129
		c0,1.602-0.344,3.209-1.032,4.816c-0.919,2.752-2.64,4.988-5.161,6.709c-2.527,1.72-5.279,2.58-8.257,2.58
		c-4.128,0-7.569-1.376-10.321-4.129c-2.752-2.752-4.128-6.192-4.128-10.321c0-1.606,0.226-3.214,0.688-4.816
		c1.145-2.752,2.979-5.042,5.505-6.881c4.585-5.504,5.849-10.547,3.785-15.138l-0.344-0.344c-2.295-1.833-4.473-3.784-6.537-5.849
		c-0.919-0.226-1.72-0.344-2.409-0.344c-4.591,0-8.719,2.295-12.385,6.88c-1.15,2.296-2.983,4.247-5.505,5.85
		c-2.526,1.606-5.047,2.408-7.569,2.408c-2.295,0-4.704-0.688-7.225-2.064c-2.527-1.376-4.36-3.097-5.505-5.161
		c-1.15-2.29-1.72-4.698-1.72-7.225c0-1.376,0.113-2.634,0.344-3.784c1.145-3.897,3.44-6.763,6.881-8.602
		c2.064-1.376,4.472-2.063,7.225-2.063c0.457,0,0.914,0,1.376,0c2.978-0.457,5.558-1.489,7.741-3.097
		c2.177-1.603,3.494-2.865,3.957-3.784c0.457-0.914,0.801-1.721,1.032-2.408c-0.919-2.979-1.495-6.075-1.72-9.29
		c-2.064-3.209-5.849-4.816-11.354-4.816c-1.15,0-2.408,0.118-3.785,0.345c-2.064,1.15-4.128,1.72-6.192,1.72
		c-5.048,0-8.945-2.064-11.698-6.192c-1.838-2.521-2.752-5.273-2.752-8.257c0-0.914,0.113-1.834,0.344-2.753
		c0.457-3.209,2.064-5.962,4.817-8.257c2.752-2.29,5.849-3.44,9.289-3.44c3.897,0,7.337,1.376,10.321,4.129
		c2.978,1.838,5.961,2.752,8.945,2.752h0.344c2.064,0,4.01-0.457,5.849-1.376c1.602-3.21,3.322-6.193,5.161-8.945
		c0-5.042-2.871-9.289-8.601-12.729c-2.983-0.688-5.564-2.408-7.741-5.161c-2.182-2.752-3.268-5.617-3.268-8.601
		c0-0.457,0-0.914,0-1.376c0.457-3.897,2.177-7.106,5.161-9.634c2.752-2.29,5.849-3.44,9.289-3.44c4.585,0,8.257,1.721,11.009,5.161
		c2.064,2.295,3.209,4.935,3.44,7.913c2.29,6.192,5.849,9.864,10.665,11.009c3.209-1.602,6.537-2.865,9.978-3.784
		c3.209-3.897,3.666-8.945,1.376-15.138c-1.838-2.521-2.752-5.273-2.752-8.257c0-3.897,1.43-7.279,4.301-10.149
		c2.865-2.865,6.247-4.301,10.149-4.301c3.897,0,7.279,1.436,10.149,4.301c2.865,2.87,4.301,6.252,4.301,10.149
		c0,2.983-0.919,5.735-2.752,8.257c-2.295,6.192-1.838,11.24,1.376,15.138c3.44,0.919,6.763,2.183,9.977,3.784
		c4.817-1.145,8.37-4.816,10.666-11.009c0.226-2.979,1.376-5.618,3.44-7.913c2.752-3.44,6.418-5.161,11.009-5.161
		c3.44,0,6.537,1.15,9.289,3.44c3.44,2.753,5.161,6.425,5.161,11.01c0,3.44-1.15,6.537-3.44,9.289
		c-2.064,2.296-4.591,3.784-7.569,4.473c-5.736,3.44-8.601,7.688-8.601,12.729c1.833,2.752,3.553,5.735,5.161,8.945
		c1.602,0.919,3.553,1.376,5.849,1.376c3.209,0,6.306-0.914,9.289-2.752c2.29-2.064,4.93-3.44,7.913-4.129c0.688,0,1.489,0,2.408,0
		c3.44,0,6.537,1.15,9.289,3.44c2.752,2.295,4.354,5.048,4.817,8.257c0.226,0.919,0.344,1.721,0.344,2.408
		c0,3.44-1.15,6.537-3.44,9.289c-2.295,2.753-5.161,4.473-8.601,5.161c-0.688,0.23-1.494,0.344-2.408,0.344
		c-2.064,0-4.128-0.569-6.192-1.72c-1.376-0.227-2.64-0.345-3.785-0.345C158.493,308.134,154.709,309.741,152.645,312.95z
		 M148.172,312.606c0-1.145,0.457-1.946,1.376-2.408c0.226-0.226,0.457-0.457,0.688-0.688c3.44-4.585,7.682-6.881,12.729-6.881
		c0.914,0,2.634,0.231,5.161,0.688h1.032c0.226,0.231,0.457,0.344,0.688,0.344c1.376,0.688,2.752,1.032,4.128,1.032
		c0.457,0,1.032,0,1.72,0c2.521-0.457,4.585-1.773,6.193-3.956c1.602-2.178,2.177-4.526,1.72-7.053
		c-0.462-2.064-1.607-3.785-3.44-5.161c-1.838-1.376-3.903-2.064-6.193-2.064c-2.752,0-4.935,0.92-6.537,2.753
		c-0.231,0.231-0.462,0.462-0.688,0.688c-5.048,2.984-9.063,4.473-12.042,4.473c-2.752,0-5.736-1.032-8.945-3.096h-0.344
		c-0.688-0.227-1.15-0.688-1.376-1.377c-0.231-0.226-0.575-1.031-1.032-2.408c-1.607-3.897-2.984-6.649-4.129-8.257
		c-0.462-0.457-0.688-0.914-0.688-1.376c0-0.226,0.113-0.57,0.344-1.032c0-6.649,3.784-12.154,11.353-16.514
		c0.226,0,0.457-0.113,0.688-0.345c2.752-0.456,4.585-1.258,5.504-2.408c1.602-2.063,2.349-4.526,2.236-7.396
		c-0.118-2.865-1.091-5.102-2.924-6.709c-1.607-1.376-3.903-2.064-6.881-2.064c-3.44,0-6.08,1.032-7.913,3.097
		c-1.15,1.376-1.838,3.097-2.064,5.16c0,0.231,0,0.463,0,0.688c-1.376,4.129-3.269,7.456-5.677,9.978
		c-2.408,2.526-4.301,4.016-5.677,4.473c-1.376,0.462-2.526,0.688-3.44,0.688c-0.231,0-0.462,0-0.688,0c-0.231,0-0.575,0-1.032,0
		c-0.462-0.226-1.032-0.569-1.72-1.032c-3.671-2.063-6.537-3.096-8.601-3.096c-0.688,0-1.15-0.345-1.376-1.032h-0.344
		c-4.816-5.505-5.736-12.268-2.752-20.299c0-0.226,0.344-0.569,1.032-1.032l0.688-0.344c1.145-1.602,1.72-3.44,1.72-5.505
		c0-2.521-1.032-4.757-3.096-6.709c-2.064-1.945-4.36-2.924-6.881-2.924c-2.752,0-5.161,0.979-7.225,2.924
		c-2.064,1.952-3.097,4.075-3.097,6.365c0,2.295,0.57,4.359,1.72,6.192c0.226,0.231,0.344,0.463,0.344,0.688
		c3.209,8.257,2.29,15.024-2.752,20.298c-0.462,0.463-0.919,0.807-1.376,1.032c-1.607,0.231-3.785,1.15-6.537,2.753
		c-1.376,0.688-2.295,1.15-2.752,1.376c-0.688,0.462-1.376,0.575-2.064,0.344c-7.569-1.145-12.729-5.849-15.482-14.105
		c0-0.226,0-0.457,0-0.688c-0.231-2.063-0.919-3.784-2.064-5.16c-2.295-2.521-5.279-3.784-8.945-3.784
		c-2.064,0-3.785,0.462-5.161,1.376c-1.607,1.607-2.64,3.902-3.096,6.881c0,2.295,1.032,4.703,3.096,7.225
		c1.376,1.607,2.978,2.64,4.816,3.097c0.226,0,0.457,0,0.688,0c8.026,4.591,12.042,10.552,12.042,17.89c0,0.231,0,0.463,0,0.688
		c0,0.462-0.231,0.919-0.688,1.376c-0.462,0.688-1.376,1.839-2.752,3.44c-2.064,2.296-3.44,4.016-4.128,5.161
		c-0.231,0.919-0.688,1.376-1.376,1.376l-0.344,0.344c-0.231,0-0.344,0.118-0.344,0.344c-2.295,1.377-4.704,2.064-7.225,2.064
		c-4.591,0-8.601-1.032-12.042-3.097c-0.231-0.226-0.462-0.456-0.688-0.688c-1.838-1.833-4.016-2.753-6.537-2.753
		c-2.527,0-4.876,0.748-7.053,2.236c-2.182,1.495-3.5,3.269-3.956,5.333c0,0.462,0,1.032,0,1.721c0,1.838,0.57,3.559,1.72,5.16
		c1.602,2.526,3.897,4.016,6.88,4.473c1.602,0.231,3.785-0.344,6.537-1.721c0.226,0,0.457-0.112,0.688-0.344
		c1.833-0.226,3.553-0.344,5.161-0.344c6.418,0,11.466,2.064,15.138,6.192c0.914,0.463,1.376,1.15,1.376,2.064
		c0.226,3.672,0.914,7.343,2.064,11.01c0,0.23,0,0.462,0,0.688c0,0.688-0.344,1.264-1.032,1.721
		c-2.526,6.881-7.913,11.127-16.17,12.729c-0.231,0-0.462,0-0.688,0h-0.344c-2.295-0.227-4.247,0.118-5.849,1.032
		c-2.064,1.376-3.44,3.214-4.128,5.504c-0.688,2.527-0.462,4.704,0.688,6.537c1.833,3.215,4.817,4.816,8.945,4.816
		c1.376,0,2.752-0.344,4.128-1.032c0.914-0.457,1.946-1.602,3.097-3.44l0.344-0.344c0-0.226,0-0.397,0-0.516
		c0-0.113,0.113-0.173,0.344-0.173c5.504-6.649,11.235-9.977,17.202-9.977c0.688,0,1.376,0,2.064,0
		c0.457-0.226,0.801-0.345,1.032-0.345c0.688,0,1.376,0.345,2.064,1.032c0.226,0.231,0.801,0.92,1.72,2.064
		c2.29,2.526,4.241,4.247,5.849,5.161c0.688,0.688,1.032,1.494,1.032,2.408c0,0.23,0,0.462,0,0.688
		c2.29,6.655,0.57,13.305-5.16,19.955c-0.231,0.23-0.462,0.344-0.688,0.344l-0.344,0.344c-2.527,1.607-3.903,2.979-4.128,4.129
		c-0.919,2.29-0.748,4.87,0.516,7.741c1.258,2.864,3.038,4.645,5.333,5.332c0.688,0.457,1.602,0.688,2.752,0.688
		c2.064,0,4.07-0.635,6.021-1.893c1.946-1.264,3.269-2.812,3.957-4.645c0.457-1.839,0.344-4.016-0.344-6.537c0-0.23,0-0.462,0-0.688
		c-0.231-8.026,2.752-13.987,8.945-17.891c0.457-0.914,1.258-1.376,2.408-1.376h0.344c0.457,0,1.489,0.118,3.096,0.344
		c2.752,0.463,5.042,0.575,6.881,0.345h0.344c1.145,0,1.946,0.462,2.409,1.376l0.344,0.344c6.193,3.672,9.171,9.289,8.945,16.858
		c0,0.226,0,0.457,0,0.688c-0.231,0.914-0.344,1.833-0.344,2.753c0,0.914,0.113,1.945,0.344,3.096
		c0.688,1.834,1.946,3.44,3.784,4.817c1.833,1.376,3.785,2.063,5.849,2.063c0.914,0,1.72-0.23,2.409-0.688
		c2.521-0.688,4.241-2.354,5.161-4.988c0.914-2.64,0.914-5.221,0-7.741c-0.688-1.839-1.839-3.322-3.44-4.473
		c-0.231,0-0.462-0.113-0.688-0.344c-5.967-7.107-8.144-13.531-6.537-19.267c0-0.226,0-0.457,0-0.688v-0.344
		c0.226-0.688,0.629-1.258,1.204-1.721c0.57-0.456,1.661-1.145,3.269-2.063c3.897-2.29,6.306-4.011,7.225-5.161
		c0.688-0.457,1.376-0.688,2.064-0.688c0.457,0,0.801,0.118,1.032,0.344c0.688-0.226,1.376-0.344,2.064-0.344
		c6.193,0,11.466,2.639,15.826,7.912c0,0.231,0.113,0.463,0.344,0.688c1.376,3.215,2.634,5.161,3.785,5.849
		c1.376,0.688,2.752,1.032,4.128,1.032c4.128,0,7.106-1.602,8.945-4.816c1.376-2.29,1.774-4.87,1.204-7.741
		c-0.575-2.865-1.893-4.87-3.957-6.021c-1.15-0.688-2.871-1.032-5.161-1.032c-0.462,0-1.032,0.118-1.72,0.344
		c-0.231,0-0.462,0-0.688,0c-8.257-1.376-13.649-5.617-16.17-12.729l-0.344-0.344c-0.231-0.688-0.344-1.376-0.344-2.064
		C147.366,319.375,147.941,316.278,148.172,312.606z M79.708,292.308c3.666,1.838,5.902,4.591,6.708,8.257
		c0.801,3.671,0.629,7.456-0.516,11.354c-0.919,6.881-5.623,10.321-14.105,10.321c-1.376,0-2.871-0.113-4.473-0.345
		c-3.671-0.457-6.537-2.236-8.601-5.332c-2.064-3.097-3.328-6.709-3.784-10.838c-0.231-4.128,2.752-8.482,8.945-13.073l0.344-0.344
		c2.521-0.914,5.273-1.377,8.257-1.377h0.344C75.117,290.931,77.413,291.394,79.708,292.308z M82.46,310.542
		c0.914-4.128,1.145-7.338,0.688-9.633c-0.462-2.29-1.839-4.01-4.129-5.16c-1.376-0.688-3.096-1.032-5.161-1.032
		c-3.44,0-6.192,0.344-8.257,1.032c-1.607,1.15-3.042,2.752-4.3,4.816c-1.263,2.063-1.893,3.671-1.893,4.816
		c0.688,7.568,3.554,11.584,8.601,12.041c0.688,0.231,1.489,0.463,2.409,0.688c1.145,0.462,1.946,0.688,2.408,0.688
		C78.558,318.8,81.772,316.047,82.46,310.542z M118.584,317.079c6.65,2.296,9.402,7.569,8.257,15.826
		c-0.231,1.15-0.575,2.526-1.032,4.128c-1.839,6.655-7.225,9.978-16.17,9.978c-0.462,0-1.032-0.113-1.72-0.344
		c-4.129-0.226-8.031-3.785-11.698-10.666v-0.688c-0.462-1.376-0.688-2.865-0.688-4.473c0-1.146,0.113-2.408,0.344-3.784
		c0.457-2.521,1.376-4.816,2.752-6.881c2.29-3.44,5.504-5.161,9.633-5.161C110.785,315.014,114.225,315.703,118.584,317.079z
		 M123.401,331.184c0.914-5.505-1.263-9.058-6.537-10.665c-4.128-1.376-7.225-2.064-9.289-2.064c-2.295,0-4.247,1.032-5.849,3.097
		c-0.919,1.376-1.495,2.983-1.72,4.816c-0.688,3.44-0.919,6.192-0.688,8.257c1.145,1.839,2.58,3.559,4.3,5.161
		c1.72,1.607,3.269,2.526,4.645,2.752c0.457,0,0.914,0,1.376,0c6.649,0,10.547-2.177,11.697-6.537
		c0.226-0.456,0.629-1.258,1.204-2.408C123.111,332.448,123.401,331.647,123.401,331.184z M122.369,270.977
		c3.666,1.15,6.192,3.5,7.569,7.053c1.376,3.559,1.833,7.284,1.376,11.182c-0.462,4.128-4.128,7.913-11.009,11.354h-0.688
		c-0.688,0.23-1.838,0.344-3.44,0.344c-1.838,0-3.44-0.226-4.816-0.688c-2.752-0.457-5.048-1.376-6.881-2.752
		c-3.215-2.29-4.817-5.333-4.817-9.117s0.914-7.51,2.752-11.182c2.29-6.649,7.569-9.058,15.826-7.225
		C119.617,270.177,120.993,270.52,122.369,270.977z M126.841,288.868c0.914-7.569-1.032-12.155-5.849-13.762
		c-0.462,0-1.15-0.345-2.064-1.032c-1.15-0.457-1.952-0.801-2.408-1.032c-0.919-0.226-1.839-0.344-2.752-0.344
		c-4.128,0-6.881,2.063-8.257,6.192c-1.607,4.591-2.467,7.859-2.58,9.805c-0.118,1.952,0.86,3.731,2.924,5.333
		c1.602,1.15,3.322,1.951,5.161,2.408c3.209,0.688,5.849,0.919,7.913,0.688c1.833-0.914,3.612-2.236,5.333-3.957
		C125.981,291.448,126.841,290.018,126.841,288.868z"/>
</g>
<g enable-background="new    ">
	<path d="M357.859,272.497c-1.992,1.246-2.981,2.364-2.981,3.354c0.745,0.501,1.549,0.688,2.423,0.559
		c0.867-0.122,2.049-0.431,3.541-0.932c1.985-0.745,4.967-0.745,8.944,0c4.473,0.746,6.709,1.491,6.709,2.236
		c0.245,1.246-1.246,3.354-4.473,6.336c-2.236,1.992-3.978,3.11-5.218,3.354c-0.746,0.251-0.996,0.746-0.746,1.491
		c0.245,0.745,0.245,1.368,0,1.863c-0.745,0.746-2.795,1.619-6.149,2.609c-3.354,0.996-5.532,1.49-6.522,1.49c-0.25,0-0.5,0-0.745,0
		c-0.996,0-1.991,0.251-2.981,0.746c-0.251,0.25-0.688,0.873-1.305,1.863c-0.623,0.996-1.182,1.619-1.678,1.863
		c-0.745,0.746-0.745,1.619,0,2.609c0.496,0.501,1.863,0.745,4.1,0.745s3.478,0.128,3.728,0.373c0.495,0,1.55,0.128,3.169,0.373
		c1.612,0.25,2.795,0.5,3.54,0.745c1.24,0.501,1.118,1.991-0.372,4.473c-2.236,3.727-4.352,5.841-6.337,6.336
		c-1.246,0.501-2.737,1.991-4.472,4.473c0.494,0.745,1.361,1.118,2.608,1.118c-0.251,1.246-0.745,2.486-1.491,3.727
		c-0.5,0.746-2.981,2.236-7.454,4.473c-0.745,0.745-1.06,1.246-0.932,1.491c0.122,0.25,0.56,0.745,1.305,1.49
		c0.745,0.746,1.118,1.369,1.118,1.864c0,0.995-2.365,2.859-7.082,5.591c-1.49,0.995-2.981,2.364-4.473,4.1
		c-0.5,0.745-1.06,1.246-1.677,1.49c-0.623,0.251-1.06,0.373-1.305,0.373h-0.745c-0.746,1.246-1.491,3.232-2.236,5.964
		c-0.25,0.995-0.688,2.736-1.305,5.218c-0.623,2.486-1.06,4.35-1.305,5.591c-0.25,1.246,0.245,4.286,1.491,9.131
		c1.24,4.846,1.863,7.391,1.863,7.641c0.245,0.746,0.804,2.481,1.677,5.218c0.868,2.731,1.678,5.341,2.424,7.827
		c0.745,2.481,1.117,3.85,1.117,4.1c-0.5,1.986-1.49,2.236-2.981,0.746c-0.995-0.996-1.491-3.978-1.491-8.945
		c0-0.996-0.186-1.619-0.559-1.863c-0.373-0.251-0.932-0.501-1.678-0.746c-0.744-0.25-1.246-0.5-1.49-0.745
		c-0.501-0.501-0.128-1.991,1.118-4.473c0-0.25-0.314-1.433-0.932-3.541c-0.624-2.113-1.305-4.53-2.05-7.268
		c-0.746-2.731-1.246-4.595-1.491-5.591c-0.251-1.24-1.368-3.599-3.354-7.081c-1.992-3.477-3.045-5.591-3.168-6.336
		c-0.128-0.746-0.996-2.05-2.609-3.914c-1.619-1.863-3.296-3.727-5.031-5.591c-1.741-1.863-2.736-2.917-2.981-3.168
		c-0.251-0.495-1.183-0.932-2.796-1.305c-1.619-0.372-2.551-0.681-2.795-0.932c-0.25-0.244-0.996-0.617-2.236-1.118
		c-1.246-0.495-2.422-1.054-3.541-1.677c-1.117-0.617-1.805-1.177-2.05-1.678c-0.25-0.494-2.551-1.921-6.896-4.286
		c-4.35-2.358-6.65-3.727-6.895-4.1c-0.25-0.372-0.25-0.682,0-0.932c0.244-0.244,0.682-0.617,1.305-1.118
		c0.617-0.495,0.99-1.118,1.117-1.863c0.123-0.746-0.372-1.24-1.49-1.491c-1.118-0.244-2.551-0.431-4.286-0.559
		c-1.741-0.123-2.859-0.309-3.354-0.56c-4.723-2.236-7.332-4.1-7.826-5.591c-0.251-0.745,1.304-1.613,4.658-2.608
		c3.354-0.99,5.526-1.491,6.522-1.491c1.491,0,2.236-1.118,2.236-3.354c-0.501-0.495-1.183-0.682-2.05-0.559
		c-0.873,0.128-2.178,0.372-3.914,0.745c-1.74,0.373-2.981,0.56-3.727,0.56c-2.486-0.245-4.351-0.868-5.591-1.864
		c-0.251-0.244-0.874-0.372-1.864-0.372c-0.995,0-2.178-0.059-3.54-0.187c-1.368-0.122-2.423-0.309-3.168-0.56
		c-3.232-1.24-5.096-2.358-5.591-3.354c-0.25-0.495-0.064-0.932,0.559-1.304c0.617-0.373,1.363-0.746,2.236-1.118
		c0.868-0.373,1.363-0.618,1.491-0.746c0.122-0.122,0.617-0.309,1.491-0.559c0.867-0.245,1.677-0.56,2.422-0.932
		c0.746-0.373,1.305-0.932,1.678-1.678c0.373-0.745,0-1.176-1.118-1.305c-1.118-0.122-2.3-0.122-3.541,0
		c-1.246,0.129-2.364,0.064-3.354-0.186c-3.727-1.241-5.719-2.108-5.963-2.609l0.373-2.981c-0.746-0.245-2.114-1.24-4.101-2.982
		c-1.991-1.735-2.981-2.981-2.981-3.727s0.432-1.177,1.305-1.305c0.867-0.122,1.922-0.187,3.168-0.187
		c1.24,0,2.107-0.122,2.609-0.372c0.989-0.746,0.121-1.491-2.609-2.236c-0.25,0-0.623-0.059-1.118-0.187
		c-0.501-0.122-0.874-0.187-1.118-0.187c-0.501-0.244-1.555-1.305-3.168-3.168c-1.619-1.863-2.551-3.168-2.795-3.913
		c0-0.495,0.309-0.868,0.932-1.118c0.617-0.245,1.362-0.432,2.236-0.56c0.867-0.122,1.49-0.309,1.863-0.559
		c0.373-0.245,0.309-0.746-0.187-1.491c-0.501-0.745-1.118-1.613-1.864-2.609c-0.744-0.989-1.117-1.863-1.117-2.608
		c-0.746-1.986,0.373-3.227,3.354-3.728c0.496-0.244,1.177-0.244,2.051,0c0.867,0.251,1.677,0.251,2.422,0
		c0.496-0.244,1.305-0.122,2.424,0.373c1.117,0.501,1.921,0.745,2.422,0.745c1.986-0.495,3.227-0.745,3.727-0.745
		c0.496,0.25,1.986,2.608,4.473,7.081c0.746,0.251,1.177,0.373,1.305,0.373c0.123,0,0.432-0.559,0.932-1.677
		c0.496-1.118,0.868-1.8,1.119-2.051c0.744-0.989,1.863-1.118,3.354-0.372c0.495,0.501,1.428,2.05,2.795,4.658
		c1.363,2.609,2.424,4.042,3.169,4.287c0.989,0.5,1.985-0.618,2.981-3.354l0.373-0.746c0.745-1.24,1.735-1.24,2.981,0
		c0.495,0.501,1.054,2.423,1.677,5.777c0.617,3.354,0.932,5.282,0.932,5.777c-0.25,0-0.372,1.677-0.372,5.031
		s0.309,5.532,0.932,6.522c0.617,0.996,1.177,0.81,1.677-0.559c0.496-1.363,0.868-2.668,1.119-3.914
		c0.244-0.244,2.357-2.358,6.336-6.336c0.244-0.244-0.129-1.177-1.119-2.795c-0.995-1.613-1.304-2.545-0.932-2.796
		c0.373-0.244,1.363-0.244,2.982,0c1.613,0.251,2.667,0.373,3.168,0.373c0.495-0.245,0.431-0.746-0.187-1.491
		c-0.623-0.745-1.491-1.549-2.608-2.423c-1.119-0.867-1.806-1.427-2.051-1.677c-1.991-2.981-3.727-5.218-5.218-6.709
		c-2.486-2.48-3.482-4.595-2.981-6.336c0.244-0.745,2.48-0.373,6.709,1.118c0.745,0,1.549,0.314,2.422,0.932
		c0.868,0.623,1.678,1.06,2.424,1.305c0.744,0.25,1.361,0.373,1.863,0.373c0.244-0.495,0.431-0.804,0.559-0.933
		c0.123-0.122-0.128-0.745-0.746-1.863c-0.623-1.118-0.995-1.8-1.117-2.05c-0.129-0.244-0.438-0.745-0.932-1.491
		c-0.251-0.244-1.434-1.613-3.541-4.1c-2.114-2.48-3.297-4.1-3.541-4.845l-1.118-4.101c2.731,1.247,4.595,1.864,5.591,1.864
		c0.495-0.495,0.682-0.933,0.559-1.305c-0.127-0.373-0.5-1.177-1.117-2.423c-0.623-1.24-1.061-2.108-1.305-2.609
		c-0.25-0.494-0.373-1.176-0.373-2.05c0-0.867,0-1.549,0-2.05c0-0.495,0.123-0.745,0.373-0.745c0.244,0,0.803,0.314,1.677,0.932
		c0.868,0.623,1.864,1.305,2.981,2.05c1.119,0.746,1.986,1.246,2.609,1.491c0.617,0.25,0.804-0.373,0.559-1.863
		c-0.745-3.728-1.863-6.581-3.354-8.573c-0.502-0.745-0.314-1.677,0.559-2.795c0.867-1.118,1.678-1.8,2.423-2.05
		c1.24,0,2.854,0.745,4.845,2.236l3.355,5.963c0.494,0.251,0.803,0.373,0.932,0.373c0.121,0,0.43-0.309,0.932-0.932
		c0.494-0.617,0.745-1.055,0.745-1.305c1.24-1.24,2.108-1.491,2.608-0.745c0.99,1.741,1.491,5.346,1.491,10.809
		c0,0.745,1.241,0.25,3.728-1.491c1.735-1.24,2.854-1.735,3.354-1.49c1.491,0.745,1.241,3.109-0.744,7.081
		c-0.502,0.996-1.061,2.924-1.678,5.777c-0.623,2.859-0.932,4.658-0.932,5.404c0.494,0.25,1.24,0.25,2.236,0
		c0.99-0.245,2.358-0.746,4.1-1.491c1.735-0.745,2.73-1.118,2.981-1.118c0.745-0.244,1.177-0.122,1.305,0.373
		c0.122,0.501,0.122,1.118,0,1.863c-0.128,0.745-0.874,2.423-2.236,5.031c-1.368,2.609-2.179,4.164-2.423,4.659
		c-1.741,1.741-2.486,3.232-2.236,4.473c0.244,0.501,0.804,0.56,1.678,0.187c0.867-0.373,1.863-0.804,2.981-1.305
		c1.118-0.495,1.864-0.682,2.236-0.559c0.372,0.128,0.245,1.06-0.372,2.795c-0.624,1.741-1.305,3.482-2.051,5.218l-1.118,2.236
		c1.241,0.251,2.236,0.251,2.981,0c0.245,0,2.236,0.373,5.964,1.118c2.236,0.501,3.728,0.501,4.473,0
		c0.745-0.745,0.932-1.549,0.56-2.423c-0.373-0.867-0.811-1.799-1.305-2.795l-1.119-1.491c-1.991-4.473-3.354-7.203-4.1-8.199
		c-0.745-0.745-1.246-2.05-1.49-3.914c-0.25-1.863-0.129-3.168,0.373-3.913c0.244-0.495,1.985-0.373,5.217,0.373
		c0.496,0.25,1.613,0.932,3.355,2.05c1.734,1.118,2.73,1.677,2.98,1.677c1.492,0.746,2.609,0.128,3.355-1.863
		c0.244-0.495-0.746-3.477-2.982-8.945c-0.996-1.985-0.623-4.968,1.119-8.945c0.494-1.24,1.612-1.49,3.354-0.745
		c0.99,0.501,2.359,2.236,4.1,5.218c0.746,0.996,1.491,0.746,2.236-0.745c0.245-0.244,0.373-0.495,0.373-0.745
		c0.495-0.245,0.495-3.85,0-10.809c0.244-1.491,1.24-1.613,2.982-0.373c0.494,0.501,1.24,0.81,2.236,0.932
		c0.989,0.128,1.734,0.187,2.235,0.187l0.745-0.373c0.496,1.246,1.864,1.864,4.1,1.864c2.481,0,4.346-3.6,5.592-10.809
		c0.244-0.495,0.244-1.427,0-2.796c-0.251-1.362-0.373-2.423-0.373-3.168s0.122-1.362,0.373-1.863
		c0.745-0.245,1.362,0.063,1.863,0.932c0.494,0.873,0.99,2.05,1.49,3.541c0,0.745,0.188,2.236,0.56,4.473
		c0.372,2.235,0.681,3.668,0.932,4.286c0.245,0.623,0.933,0.932,2.05,0.932c1.118,0,1.8,0.128,2.051,0.372
		c0.244,0.746,0.121,2.05-0.373,3.914c-0.501,1.863-0.996,3.046-1.491,3.541c-0.995,0.995-0.995,2.235,0,3.727
		c0.245,0.25,1.305,0.437,3.168,0.56c1.864,0.128,3.04,0.437,3.541,0.932c0.495,0.745,0.745,1.182,0.745,1.304
		c0,0.129-0.25,0.688-0.745,1.678c-0.501,0.996-0.874,1.619-1.118,1.863c-0.25,0.996-2.114,2.737-5.591,5.218
		c-0.501,0.501-1.246,1.061-2.236,1.678c-0.995,0.623-2.114,1.368-3.354,2.236c-1.246,0.873-1.992,1.305-2.236,1.305
		c-0.745,0.5-0.873,0.932-0.373,1.304c0.496,0.373,1.363,0.81,2.609,1.305c5.463-0.244,8.572-0.244,9.318,0
		c1.24,0,2.608,0.874,4.1,2.609c0.745,0.745-0.501,2.486-3.727,5.218c-0.251,0-1.119,0.81-2.609,2.423
		c-1.491,1.619-2.609,2.673-3.354,3.168c-0.745,0.25-1.556,0.873-2.423,1.863c-0.873,0.996-1.678,1.741-2.423,2.236
		c-0.501,0.745-1.433,1.06-2.795,0.932c-1.368-0.122-2.179-0.187-2.423-0.187c-0.501,0.251-0.932,0.56-1.305,0.933
		c-0.373,0.372-0.688,0.809-0.932,1.304V272.497z M291.517,293.369l3.728-2.981c-2.982-2.731-4.846-4.596-5.591-5.591
		c-0.251,1.991-0.874,3.727-1.864,5.218c-1.991,3.482-2.486,5.468-1.49,5.963c0.495,0.251,1.055,0.187,1.678-0.186
		c0.617-0.373,1.24-0.804,1.863-1.305C290.457,293.992,291.016,293.619,291.517,293.369z M304.562,316.849l1.118,4.846
		c0.244,0,0.432-0.123,0.559-0.373c0.123-0.244,0.309-0.682,0.56-1.305c0.245-0.617,0.373-1.176,0.373-1.677
		c-0.501-1.986-1.864-4.595-4.101-7.827c-0.25-0.244-0.559-0.745-0.932-1.491c-0.372-0.745-0.688-1.304-0.932-1.677
		c-0.25-0.373-0.688-0.745-1.305-1.118c-0.623-0.373-1.432-0.431-2.422-0.187c-0.25,0.501,0.617,1.246,2.609,2.236
		c0.989,0.501,1.612,1.741,1.863,3.728c0,0.5-0.064,1.246-0.187,2.236c-0.128,0.995-0.187,1.863-0.187,2.608
		s0.244,1.118,0.745,1.118c0.245,0,0.495-0.122,0.745-0.373c0.245-0.244,0.496-0.494,0.746-0.745
		C304.312,316.354,304.562,316.354,304.562,316.849z M311.643,340.703c0.245-0.495,0.059-1.49-0.559-2.981
		c-0.623-1.491-0.932-2.358-0.932-2.609c0-0.495-0.373-1.735-1.118-3.727c-0.745-1.986-1.741-3.227-2.981-3.728
		c0,0.501-0.064,1.061-0.187,1.678c-0.128,0.623-0.251,1.677-0.372,3.168c-0.129,1.49-0.064,2.364,0.186,2.608
		c0.495,0.996,1.549,2.301,3.168,3.914C310.461,340.645,311.393,341.204,311.643,340.703z M311.271,318.713
		c0.245,0.251,0.745-0.058,1.491-0.932c0.745-0.867,1.49-1.735,2.236-2.608c0.745-0.868,1.24-1.427,1.49-1.678l2.236-1.118
		l-4.1-5.591l-3.354,11.555V318.713z M326.18,351.139l1.117-7.082c-1.741-3.727-2.609-6.086-2.609-7.081
		c0-0.99-0.314-2.668-0.932-5.032c-0.623-2.358-1.182-3.785-1.677-4.286c-2.236-3.227-2.981-5.09-2.236-5.591
		c2.731-1.735,3.478-3.226,2.236-4.473c-0.501-0.745-1.304-1.117-2.423-1.117c-1.117,0-2.05,0.5-2.795,1.49
		c-0.501,0.745-1.246,1.992-2.236,3.728c-1.741,3.482-2.236,6.336-1.49,8.572c0.244,0.501,0.309,1.619,0.186,3.354
		c-0.128,1.741-0.186,2.737-0.186,2.981c0,0.996,0.867,3.855,2.608,8.572c1.735,4.723,2.854,7.454,3.354,8.2
		c0,0.25,0.244,0.932,0.745,2.05c0.495,1.118,0.99,1.863,1.491,2.236c0.494,0.372,0.932,0.372,1.305,0
		C323.011,357.289,324.188,355.117,326.18,351.139z M316.488,292.623c-0.25,0.251-0.5,0.624-0.745,1.118
		c-0.251,0.501-0.688,1.369-1.305,2.609c-0.623,1.246-0.995,2.114-1.118,2.609c-0.128,0.5-0.064,0.873,0.187,1.118h3.354
		c-0.25,0.25-0.438,0.5-0.559,0.745c-0.129,0.25-0.251,0.688-0.373,1.305c-0.129,0.623,0.059,1.06,0.559,1.305
		c0.244,0.5,1.118,0.687,2.609,0.559c1.49-0.122,2.236-0.682,2.236-1.677c0-0.746-0.501-1.864-1.491-3.354
		c-0.995-1.491-1.618-2.359-1.863-2.609L316.488,292.623z M328.415,288.896c0.745-0.745,0.618-1.735-0.372-2.981l-8.572-8.2
		c-1.246,2.737-2.236,4.473-2.982,5.218c-0.996,1.491-0.873,2.487,0.373,2.982l3.354,0.745c0.244,0,0.495,0.064,0.745,0.187
		c0.244,0.128,0.804,0.437,1.678,0.932c0.867,0.501,1.613,0.873,2.236,1.118c0.617,0.25,1.305,0.437,2.049,0.559
		C327.67,289.584,328.165,289.397,328.415,288.896z"/>
</g>
</svg>
